<mxfile host="Electron" agent="Mozilla/5.0 (Windows NT 10.0; Win64; x64) AppleWebKit/537.36 (KHTML, like Gecko) draw.io/24.7.17 Chrome/128.0.6613.36 Electron/32.0.1 Safari/537.36" version="24.7.17">
  <diagram name="Page-1" id="rJKRE4LC554aMOxhXyYo">
    <mxGraphModel dx="712" dy="868" grid="1" gridSize="10" guides="1" tooltips="1" connect="1" arrows="1" fold="1" page="1" pageScale="1" pageWidth="850" pageHeight="1100" math="0" shadow="0">
      <root>
        <mxCell id="0" />
        <mxCell id="1" parent="0" />
        <mxCell id="GYmJfna_k5HBjoJ6HTzK-8" style="edgeStyle=orthogonalEdgeStyle;rounded=0;orthogonalLoop=1;jettySize=auto;html=1;exitX=0.5;exitY=1;exitDx=0;exitDy=0;entryX=0.5;entryY=0;entryDx=0;entryDy=0;fontFamily=Times New Roman;" parent="1" source="GYmJfna_k5HBjoJ6HTzK-1" target="GYmJfna_k5HBjoJ6HTzK-2" edge="1">
          <mxGeometry relative="1" as="geometry" />
        </mxCell>
        <mxCell id="GYmJfna_k5HBjoJ6HTzK-1" value="Start" style="ellipse;whiteSpace=wrap;html=1;fontFamily=Times New Roman;" parent="1" vertex="1">
          <mxGeometry x="42.5" y="180" width="90" height="40" as="geometry" />
        </mxCell>
        <mxCell id="zKh0KMP6CpczOnqGha_U-4" style="edgeStyle=orthogonalEdgeStyle;rounded=0;orthogonalLoop=1;jettySize=auto;html=1;exitX=0.5;exitY=1;exitDx=0;exitDy=0;entryX=0.5;entryY=0;entryDx=0;entryDy=0;fontFamily=Times New Roman;" parent="1" source="GYmJfna_k5HBjoJ6HTzK-2" target="zKh0KMP6CpczOnqGha_U-1" edge="1">
          <mxGeometry relative="1" as="geometry" />
        </mxCell>
        <mxCell id="GYmJfna_k5HBjoJ6HTzK-2" value="create variableList" style="rounded=0;whiteSpace=wrap;html=1;fontFamily=Times New Roman;" parent="1" vertex="1">
          <mxGeometry x="25" y="240" width="120" height="60" as="geometry" />
        </mxCell>
        <mxCell id="GYmJfna_k5HBjoJ6HTzK-11" style="edgeStyle=orthogonalEdgeStyle;rounded=0;orthogonalLoop=1;jettySize=auto;html=1;exitX=0.5;exitY=1;exitDx=0;exitDy=0;entryX=0.5;entryY=0;entryDx=0;entryDy=0;" parent="1" edge="1">
          <mxGeometry relative="1" as="geometry">
            <mxPoint x="237.5" y="304" as="sourcePoint" />
          </mxGeometry>
        </mxCell>
        <mxCell id="GYmJfna_k5HBjoJ6HTzK-12" style="edgeStyle=orthogonalEdgeStyle;rounded=0;orthogonalLoop=1;jettySize=auto;html=1;exitX=0.5;exitY=1;exitDx=0;exitDy=0;entryX=0.5;entryY=0;entryDx=0;entryDy=0;fontFamily=Times New Roman;" parent="1" target="GYmJfna_k5HBjoJ6HTzK-6" edge="1">
          <mxGeometry relative="1" as="geometry">
            <mxPoint x="85" y="386" as="sourcePoint" />
          </mxGeometry>
        </mxCell>
        <mxCell id="GYmJfna_k5HBjoJ6HTzK-13" style="edgeStyle=orthogonalEdgeStyle;rounded=0;orthogonalLoop=1;jettySize=auto;html=1;exitX=0.5;exitY=1;exitDx=0;exitDy=0;entryX=0.5;entryY=0;entryDx=0;entryDy=0;fontFamily=Times New Roman;" parent="1" source="GYmJfna_k5HBjoJ6HTzK-6" target="GYmJfna_k5HBjoJ6HTzK-7" edge="1">
          <mxGeometry relative="1" as="geometry" />
        </mxCell>
        <mxCell id="GYmJfna_k5HBjoJ6HTzK-6" value="Identify Goal variable&lt;div&gt;(final value to be returned)&lt;/div&gt;" style="rounded=0;whiteSpace=wrap;html=1;fontFamily=Times New Roman;" parent="1" vertex="1">
          <mxGeometry x="25" y="408" width="120" height="60" as="geometry" />
        </mxCell>
        <mxCell id="GYmJfna_k5HBjoJ6HTzK-19" style="edgeStyle=orthogonalEdgeStyle;rounded=0;orthogonalLoop=1;jettySize=auto;html=1;exitX=0.5;exitY=1;exitDx=0;exitDy=0;entryX=0.5;entryY=0;entryDx=0;entryDy=0;fontFamily=Times New Roman;" parent="1" source="GYmJfna_k5HBjoJ6HTzK-7" target="GYmJfna_k5HBjoJ6HTzK-14" edge="1">
          <mxGeometry relative="1" as="geometry" />
        </mxCell>
        <mxCell id="GYmJfna_k5HBjoJ6HTzK-7" value="Process" style="shape=parallelogram;perimeter=parallelogramPerimeter;whiteSpace=wrap;html=1;fixedSize=1;fontFamily=Times New Roman;" parent="1" vertex="1">
          <mxGeometry x="25" y="490" width="120" height="60" as="geometry" />
        </mxCell>
        <mxCell id="GYmJfna_k5HBjoJ6HTzK-20" style="edgeStyle=orthogonalEdgeStyle;rounded=0;orthogonalLoop=1;jettySize=auto;html=1;exitX=0.5;exitY=1;exitDx=0;exitDy=0;entryX=0.5;entryY=0;entryDx=0;entryDy=0;fontFamily=Times New Roman;" parent="1" source="GYmJfna_k5HBjoJ6HTzK-14" target="GYmJfna_k5HBjoJ6HTzK-18" edge="1">
          <mxGeometry relative="1" as="geometry" />
        </mxCell>
        <mxCell id="GYmJfna_k5HBjoJ6HTzK-24" style="edgeStyle=orthogonalEdgeStyle;rounded=0;orthogonalLoop=1;jettySize=auto;html=1;exitX=1;exitY=0.5;exitDx=0;exitDy=0;fontFamily=Times New Roman;" parent="1" source="GYmJfna_k5HBjoJ6HTzK-14" edge="1">
          <mxGeometry relative="1" as="geometry">
            <mxPoint x="200" y="630.25" as="targetPoint" />
          </mxGeometry>
        </mxCell>
        <mxCell id="GYmJfna_k5HBjoJ6HTzK-14" value="Goal == NULL?" style="rhombus;whiteSpace=wrap;html=1;fontFamily=Times New Roman;" parent="1" vertex="1">
          <mxGeometry x="37.5" y="580" width="95" height="100" as="geometry" />
        </mxCell>
        <mxCell id="GYmJfna_k5HBjoJ6HTzK-15" value="Yes" style="text;html=1;align=center;verticalAlign=middle;resizable=0;points=[];autosize=1;strokeColor=none;fillColor=none;fontFamily=Times New Roman;" parent="1" vertex="1">
          <mxGeometry x="145" y="600" width="40" height="30" as="geometry" />
        </mxCell>
        <mxCell id="GYmJfna_k5HBjoJ6HTzK-16" value="No" style="text;html=1;align=center;verticalAlign=middle;resizable=0;points=[];autosize=1;strokeColor=none;fillColor=none;fontFamily=Times New Roman;" parent="1" vertex="1">
          <mxGeometry x="100" y="698" width="40" height="30" as="geometry" />
        </mxCell>
        <mxCell id="GYmJfna_k5HBjoJ6HTzK-23" style="edgeStyle=orthogonalEdgeStyle;rounded=0;orthogonalLoop=1;jettySize=auto;html=1;exitX=0.5;exitY=1;exitDx=0;exitDy=0;entryX=0.5;entryY=0;entryDx=0;entryDy=0;fontFamily=Times New Roman;" parent="1" source="GYmJfna_k5HBjoJ6HTzK-18" edge="1">
          <mxGeometry relative="1" as="geometry">
            <mxPoint x="85" y="790" as="targetPoint" />
          </mxGeometry>
        </mxCell>
        <mxCell id="GYmJfna_k5HBjoJ6HTzK-18" value="print &amp;amp;&amp;amp; pipe Goal&amp;nbsp;&lt;div&gt;to forwardChaining.cpp&lt;/div&gt;" style="shape=parallelogram;perimeter=parallelogramPerimeter;whiteSpace=wrap;html=1;fixedSize=1;fontFamily=Times New Roman;" parent="1" vertex="1">
          <mxGeometry x="2.5" y="698" width="165" height="72" as="geometry" />
        </mxCell>
        <mxCell id="GYmJfna_k5HBjoJ6HTzK-21" value="No" style="text;html=1;align=center;verticalAlign=middle;resizable=0;points=[];autosize=1;strokeColor=none;fillColor=none;fontFamily=Times New Roman;" parent="1" vertex="1">
          <mxGeometry x="100" y="668" width="40" height="30" as="geometry" />
        </mxCell>
        <mxCell id="GYmJfna_k5HBjoJ6HTzK-22" value="End" style="ellipse;whiteSpace=wrap;html=1;fontFamily=Times New Roman;" parent="1" vertex="1">
          <mxGeometry x="47.5" y="790" width="75" height="40" as="geometry" />
        </mxCell>
        <mxCell id="bVJKgHoNsAH_Ug4MozEx-1" value="&lt;b&gt;Rule Structure:&lt;/b&gt;&lt;div&gt;&lt;u&gt;IF clause + clause + clause + ... Cn&amp;nbsp; THEN conclusion&lt;/u&gt;&lt;/div&gt;&lt;div&gt;&lt;br&gt;&lt;/div&gt;&lt;div&gt;&lt;b&gt;# of Clause Combinations to send to RuleBase:&amp;nbsp;&lt;/b&gt;&lt;u style=&quot;background-color: initial;&quot;&gt;2^n,&amp;nbsp;&lt;/u&gt;&lt;/div&gt;&lt;div&gt;&lt;u style=&quot;background-color: initial;&quot;&gt;where n is the number of clauses found in ClauseTypes&lt;/u&gt;&lt;br&gt;&lt;/div&gt;&lt;div&gt;&lt;u style=&quot;background-color: initial;&quot;&gt;&lt;br&gt;&lt;/u&gt;&lt;/div&gt;&lt;div&gt;&lt;b&gt;Runtime (without manual parallelization):&lt;/b&gt;&lt;/div&gt;&lt;div&gt;&lt;b&gt;O(2^n * m) =&lt;u&gt; O(2^n),&lt;/u&gt;&lt;/b&gt;&lt;/div&gt;&lt;div&gt;&lt;u&gt;where &lt;b&gt;n&lt;/b&gt; is the number of matched clauses&lt;/u&gt;&lt;/div&gt;&lt;div&gt;&lt;u&gt;and &lt;b&gt;m&lt;/b&gt; is the number of rules in the rulebase&lt;/u&gt;&lt;/div&gt;&lt;div&gt;&lt;b&gt;&lt;br&gt;&lt;/b&gt;&lt;/div&gt;" style="text;html=1;align=center;verticalAlign=middle;resizable=0;points=[];autosize=1;strokeColor=none;fillColor=none;fontFamily=Times New Roman;" parent="1" vertex="1">
          <mxGeometry x="295" y="40" width="290" height="170" as="geometry" />
        </mxCell>
        <mxCell id="bVJKgHoNsAH_Ug4MozEx-2" value="" style="shape=image;verticalLabelPosition=bottom;labelBackgroundColor=default;verticalAlign=top;aspect=fixed;imageAspect=0;image=data:image/png,iVBORw0KGgoAAAANSUhEUgAAAlsAAAGZCAYAAAC+DfRTAAAAAXNSR0IArs4c6QAAAARnQU1BAACxjwv8YQUAAAAJcEhZcwAADsMAAA7DAcdvqGQAAKsHSURBVHhe7Z0FgBxF1oDfetxdiUESYhBBgrv7YYe7/cghh95hxwGHyyEHHBwOB8E9EORIkAhJiLt7Ntkkm93s7vz11XSFzjCb3WRmNlO774POTrVUVVd1V71+9epVRsQgiqIoiqIoSkrIDP4qiqIoiqIoKUCFLUVRFEVRlBSiwpaiKIqiKEoKUWFLURRFURQlhaiBvKKkGF4xtvXr10tpaalkZ2dLXl6eZGbqt45j2bJlUlxcLM2aNZPc3Nxgb/WkpKRE8vPzpaioyD4DDRs2lDp16gRH48Pzw/mUUU5OjtSqVUsyMjKCo5uybt06ex5xFhQU2OsaNGgg9erVC85IT8gnz0H9+vXtVt79KYqPqLClKClk7dq1Mn78eJk5c6YsX75cNmzYYDvK5s2bS6dOnaRHjx5Su3bt4Oyay9NPP23L6NJLL5V27doFe6sfCFnDhg2TMWPGyOrVq60AdPTRR0v//v2DMzaFc6ZOnSpz586VRYsWWUGK56dt27bSu3dv6dixo2RlZQVnR4WykSNHytixY+0ztmDBAntdq1at5NRTT7VCTLpC/f/zn/+UAw44wG7h+1IU38m61RD8VhQlidB5PP/88/LGG2/IiBEjrOC1Zs0amTNnjnz33Xfy888/y/z582X33XcPrqi5/Oc//5GffvpJDj74YKvdqq68//778sQTT0jdunVlu+22s/farVu3cu+ZMnnkkUfs87JixQqr/ZkxY4YMHTpUpkyZIi1btrSClNOSoj397LPP5JtvvpE2bdpIly5dpEWLFvLvf/9bOnfubAX8dAWBkrIhn/369VPNr1KtUM2WoqQAtAmPPvqofPXVV7LPPvvI8ccfL40bN7ZDQG4YCQ0HHePHH38cXFVzmTRpkh3y6tmzpxVEqiM0tXfddZe899578txzz0mHDh2sQMGwKc9FPHhGENQHDx4srVu3tlotBKrvv//eClDdu3eXG2+8Udq3b2/PX7hwodxxxx1W0EJL2KhRIzscd/jhh8sZZ5whJ510kj0vHUEbd9FFF8nZZ59tN4bbFaW6oJ8OipJkEKbefvttK2ihtbr++utl5513tl/sdIpoF/hyv/DCC+W+++4LrqrZIDQMHDiw2gpagFYKQYl7RBhiSI/f5QlasOuuu8pll11mhS20VAyx8veYY46xAtSoUaPsUKH7ZkZzunjxYiu0OkHLwZC1oijbBtVsKUqSmTVrlvzjH/+wX+qvvPLKRq1DRfAqlpWVybRp06zGi2FIOuI+ffpY7RiaDTe0wnnTp0+X4cOHyy677GI7cTRk8+bNs3Y8Rx55pGy//fb2PIYrP/30U2t8jFBzxBFHWK1KuCNG04Id0N57723jZJiKjpvzjzvuOGv/Ez4f27Mff/zRxj179mybd9I95JBD7LBYrL3NJ598YoUCNBb8RRjlPrHNOfDAA+2wF0LCoYceunFIjckEEydOlC+++MKWKffCkBi2SnvttZfVFDpIf+nSpTYeBBBsmyh34u/Vq5ctt9j7pTwRgrlX7Jw4PmjQIDn22GOtViV8fnmQLmXx7rvv2nSpB8qB+0AoctoZyoj6QVNFHZ1yyinWVq9p06a2PrbUPol0X375ZXn44YflgQcesMIY+Z08ebINX3XVVRuFK7SoJ554orz55pvWGH9zhJ8ryh5tI3W/2267WcEv1nCd9P73v//Jvvvua8sBrR33Sj1Rr9iihcuSfPMx8ssvv9hncsmSJXY49YQTTrDDpBdffHGlNVs8HzwbTAYgb2j1CDPMytDqUUcdtbHuFWVbozZbipJE6EwY4nnrrbdsZ4fwUdFMM0dhYaG17/rb3/5mOww6Lzog4vv222+tVsMJXHQ0P/zwgzz44IP2XDoZhBjiwCCfa+gkv/zyS3nxxRdtPAhPCEd0dDvssIM97jj//PNtx4cNGecjrKxatcqej5DQtWtXq41xnSaGzM8884zt4EiTuOmcX331VTss1rdv3006ZQSAd955xwo3V1555cbrEEzIy5NPPikfffSR7L///lbYotNHOGBIDOEErRAbv7k3NIMIh0BZYHB+++2323IgXvKPIICNFNdRF+FZjtzvhAkTbJ6Jj2sQ1hAK2YcwV5lZkZx7zjnnWIEDQYt4iJd6RIBCMKS+yAsCHmWMcMAwMzZXCDMIhFsqEGA4j+aUeBHW3KQCBB0M6jG6d/kfMmSIjBs3Tk4//fQKhTqELLStlCd5I6/YUiH8k1/uJyxwYUt2//33y8qVK+0zT/1QDuSBa9DcIXw7wYny4QOENCgD6g5BmmeDIVKezZ122sluFZUJQhtaY/LF80SZ8w6Qb+6XeyHt8HOrKNsM0zkoipIkTAcQMQJHxHzRR5544onI2rVrgyObx3Q6ESMoRI488sjIGWecERkxYoSNy3SqEdOJ2P2ms4yYDipiBJGIEcQiRpCw6Zx00kkRIyRETCdn95tOL7LHHnvY/TfddFPECBM2LvLy9NNPRwYNGhT597//bfc5iGfXXXeNXHDBBRHTgdq4jAAVef311yN777135MILL4yYTjc4OxIxHX3ECICRZcuW2fwYgSZiOsrIJZdcEhkwYEBk+vTpwZlRLr74YpvGgQceGHnttdcipnO2eSVP5OPyyy+PGAEnYoQXez7HL7300shhhx0WGTt2rD2HMmI/+Vu8eLE9D4wAY8899NBDI//5z38i+fn5Nk9GYLD3Q5qUFfsc5GWfffaJGEEhYgQEGzf3d9FFF0X222+/iOn8gzPLZ/ny5ZHTTjstsssuu9jyNAJtxAgnESOgRs4999zIwIEDI8OGDbPncp/cG/e577772nsyQkbECAeb5KsyUG48K9yXERojRsCy+0n78ccfj/z5z3+2vx3nnXeeLYfKpDNt2rTI0KFDIzNnztxY5uSReI1QGHn55Zdt+g4jyNmyPO644yLvvvtuxAhTNu1vvvkmcuKJJ0bOOuss+yyQNpv5QLDlTjmPHDnSnkt9Pfvss/Y549nhGQ2nUR48o8TFc3PjjTfa+HgOjaC98Tm/66677D0oyrZG9auKkkTMO2W/1oEhooqGQhxoX/iqR7tiOmprv4QWAi0Cmos999zTfsGjMQjDOdjuMIyD7y7CDKkw/MesR4Z/GGZkP8NWRgizmiM0AWgAwnDcCBp2SIq40EowhMhwDAbsaG8cDGsSF3ZBbpYlmiaGx4Ahrnig8cJIm+soG7R+8bQt5A0NCZo87oVz0HRwHfljmAoob4ZHMSLHPg5bJobK0GQw/GoEDZs/tH2x94vtnBEGbL6JG+2QEVSs1gitCHFvjs8//9xqctCCYXzuJkAY4cOG8W310EMP2eeB+yR+ypR74TdaPe5vS7Qu5Il6/e9//2vT+sMf/mA1N0A8xEkdhp87hobJT2XSYeiT6xnaMwKPLQs0ZGjf0G4yTGgEpODs30CTdtBBB1ntFPni+SUeNH8MD4MR3qym0T1XaCc5l/o6+eSTbf1VVOZh0BJSt2iv0C6iDSOvPMfED7xXWxKnoqQKFbYUJcm4To3OqrINPXY1DKs0adJkY+fvoAOjQ0HwYjgxDJ0qnbwbMiJtOjM6TToxjrm43DHiR6hDQAqDAIDNUhgEAwQ5OjWGihxlZWV2iJLhIIbv7rzzTrsx9Mc9//rrr8GZm4JwUxkQCMk7Aubdd98tH374oRX4YvNMWpxDp42dTthxJ/eLUIaQQKfPEFMYyjVs9wVuOK4ydcdwIfmho48d8kJwoPwZlkXISBYM7SLAYe+GbRn15QQr/iJ4I/SEBavTTjvNCqiVhbLCBcNtt91mh3GpV8IMUWJHGO9+eKYQ0B3hskU4oyx5ZkaPHm1t6RCEY5/x2HxXBO8C1/FBgeAcvpZ3ifLggye2bhRlW6BPoaIkERp2On7A0Jgv68pAp40wg7AVaytEJ4I/JYQt7FvCcCy2gyIP7gs/Ni53jA6Tzi8M8TstSRjOp7N0wgd/H3vsMStood1BAOCe0d4gzIHT7sWCfVZloBPFDQCCHrZJ+Jq66aab5JprrrECHRoXIC8IAdyr02iFIT907mhB3DVhYs+HePvi4e6RuomFjt4JQeWVxZaCwHvddddZgQUDfIzK0Z4lEwSYe++919pVobUDypZy5H64l9jnBuJpJ92zGX5u0FYilBFnGM5DOIsXT3kwGYI6R5MbK1ChhaVseN4qW5+KkkpU2FKUJELDzlc+Gw4p6SArAx0ZQg0GxPE6Z4Q2BCQnzFQG19mF2VzHQ/zxhEPXWbprEQwZTqLTfemll6zxO/Nsbr75Zrn22ms3q0lwAkhFkBauMm644QZr4E38aIvQWKDZQauG9gkQ8vhNRx4L9+S8rjshONm48omlvP1bA/dG2SJoIYAiiMYTLhOBskJIQWN3zz33WG0Wmq1bbrnF+vLacccdgzN/D/moTF54NiiXeGXDvniCXHlguI/ghkYzFiY9IGwxI1dR0gEVthQlidDhMGMLux1sVRj62lxn7AQEhs0YwkIDg8AVvoYOiHgY+sP+KlVgx0VnHoZ8sMwQGgcnKDHMhFBGXujoEADRVCDQMEOyvPvdElwcxIlQwVDR1VdfbYe2GDJiJiSaQDpvypoyY8ZluLMmDvZhC8cwbDwNVCIwZEm5oGGJvWeGhSkjjici5BEvAjtCD3WDndxf/vIXK2AmU9ACbN94ZilfZm9yf6RD3fJs8GwmAvnlOXdD5uEyQ1hmBmFlhS0EQ+qWDxQ0smGIl/g5FjtMrCjbChW2FCXJ0EkxtIEggr0L7hPoYOgg6Aj4y9AbQguuG4AOjSE8Ohs6b8535+LaAWGLc4g3VdDRMoyEcEU+0LAxlMSQIXlzQ4B0bnSc2CNhdE4+6SzRNLA8UbgT3VoY8sPGir/kgzj5i/BF+ghZ5IGNoVc6VSYPUE6unLkWFwZottDKJFvYwj6KOqYOMVqnDCg36vapp56ywjHDfYkIW8SFholnAqESYZN0EC7d5sonUdASIaAgxCB4cS9sCLX4xMI2LhEQ1pnAwPOMmw+eceLnftjH8HBlQTCjnnkmyXMYyoS4eQ+3RBOsKKlEhS1FSTIIAMzEwq8RgsCf/vQn22Hih+iDDz6wDj1ZeJlhIfwkAR0Rs9oYKmNojuMM1XEN9krMpsMgGoNf4k8FxI2A8Pjjj1snneQTuyw0GvgLc4IeBudoPxBs8B3FDDM6SgzZmQ2XjPzhEBaHnf/6179sPjCQd+WGUIWTTmevhL8wypr8sEQSM/UoZ/KG/y6ElAEDBmyRPVBlQIPJWo4IDEwSoAyoMwQthjkRBPAplgjMsuReMDLH9uz111+3z0d4Q9BLhrDFTE9mfqKRo9zxfcX9UIY8f4lqiSh/nnHKDX9opMGzQ30xNMzzV9k6QvhE4OZ9iYXhe0A7V9lha0VJNerUVFFSAB0B9iJ4aucLG60AGi48lfObzpMZYkyZdzPg6OzoUNEwIGzQ0WI/w1AOWhSELdfh0bmigUIQYjiP6xxoOtAKIQQwBZ+hGwcdKRoohECm3pM3QIjB2/bZZ59ttQZff/21Hbais3LuH9xwDR0ieUZjxDncFxowtEfMNkSAdC4IHAhCXMf9xoMyIS3cFFAOCGxo2pjVSOdJuVEWaLYQ/CgPJ2yhOSI/XMd9M5RJnigfXGbgVoC8hYVAzkEYiu2sKVeuReig7CoSHN2yOKSLR300aWijGPakLF3dAvWCMT9x4kohPHuvPNAesiFQcj+Uc+xGvW2pC4l4cD3PCuWJ1pXnz2lUMcan/nmmDjvssI155/ljyI5yJg9hOIbwztAnGkDiJy5myjI0yjNOWVMmCMO4OKHOceHAu8M7VB645uB5wfVF7DAix9CW8azFm/ChKNsCXa5HUVIMHQudMX/prOgk6CDoCOJ1uAx/YSODMEOHg1BBZ0VH5eC1ZQiPzoyO2AkeQKfOUBDXcwxhzUEn5GxvOOaGYOjsEDzQMBAnnR7DNAhjCE7x8kknS1ycR94QLBi2YRYm8XKdA4GB/GA7FQ/Kh+EfJhYgUHF/lAPDWRjkkwblhv0Ww4HhsnAgSJJvhr0oA86h3OJpZNCOUS6kF4Z0cavAfVRWgOEatEtuWIx0iZeyC1/PMcqLcqBsKqPFQXBz9VUe5JP8JipsOSh36ov6oMwRwChzngueOSYuuLy7/JEHJ7g7KA/qjzoI549y4BjPOHVGeTmNKOlSX3wMbO5+EDKxd+S62GHa2GdJUdIBFbYURdkobDFkqSiKoiQXtdlSFEVRFEVJISpsKYpihzQxUFYURVGSjw4jKoqiKIqipBDVbCmKoiiKoqSQai9sMTOJKcaKoiiKoijbgmovbCFo4XU5VTCVnunQTE1X/AEXAYo/4MqBDyfFL3AjgXsHxR8qcjWibB3VXtjCRw9+f1IFfmjw11NZz8dKeqDG4H7h/I0pfoF/rUSWK1KqHnycKclHbbYSBE/gfHGrZssvZs2aFfxSfID3Cyeqil/g1NQttq74AQ56leSjwlYSwCOyTur0C4alFL/gPVP8gnZR20a/0LYxNaiwlSAsKYGaPFlLZShVQ3gJGyX94f2qzFqCSnrBsk1qYuEX2jamhmrvZ+vDDz+Um266yS4QGw+GJ5Dkt7YYuI4vbmxK0kngIj/Yk21uMdeaDLZ8sWu5KekL75hbR0/xB4YQaYfYFD9gDVds7ZTkUqOFLR4qFuxNZHiC4mNLR6GGRVhZ1NUtNqz8BnYJHTp0CEJKusNH0fLly+2CyIo/UGdoSlRI9oe5c+dK+/btg5CSLGqssIU2CyNpJ5BsrVaK4qMj4MstnTRbuKTAcJ+Gjpl3quHalMmTJ8sOO+wQhJR0h+cZA3ntBPyCOqtfv75qSjxi6tSp0q1btyCkJIsaK2ytW7fOaje6dOmSkKCEVswNI6aLQOOqND8/3/q5QRuAUKn8xvz586Vt27ZBSEl3+KDh46F58+bBHsUHqDO0Wtr++MOCBQvsWqlKcqmx6g4nICVq3M61xJNOWi3ywoYQ6YRBZVO00/YLjKwbNWoUhBRfQKulZgx+0axZs+CXkkx0bClB0CIlYmC/tWBvhvHpqlWrrJaumisok87MmTODX4oPqJ8tP8HPVmFhYRBSfGD27NnBLyWZqLCVpjDz6tdff5UvvvhCPvroI/nhhx+sSt4JVR9//LF89dVX8u2338rXX39tDVEVRVEURYmhrFSkcIHZ5povt3XBzqpFha2tAYGHClszRTLWzTKFWJz0YUTW7hsyZIj88ssvMmXKFHnvvffkzTfftEIVAtcbb7xhhy9btWplv0TUI/qWoapyv+BZb9iwYRBSfAH3KjqM6BfVrm1cN1tk2gMi4/8kMs5sk+8QWfmj6cer1nmrCltbQ/5okdHniow6RzJGnyVZE/4sGWunR4WwJIF9yrHHHitnnXWWnHvuuXLAAQdYTRdG/W7h6/3228+6L2AtK3VEt2Woo0X/SJcJKErl0Trzj2pVZ0VLRKbeIzLFCFjzXxdZ8F+R6Q+KTLpVZFV835upQt+ELWXdHJGfjjcV96bIiv+JLP9WZPYzImMvEylLnm0Ci+7uuOOO1m0DRqZMeecLkeFFtF6EMe5nxiHT4lu3bh1cqVQGbEkUf2CSB8+64hd8GNI+Kf5QrUxSlg0TWfShSElBsMNQViSyZKjZvhAprTp7QhW2HEWm813wlpF6H9n8Nu5qI3AxZBdSQdrK+1Rk8l3xrwlvC94x52/ZotUY4I8fP97abDGUgtO5AQMG2OFEDOQxlteZWluGrv/lHzoJxD+oM603v6hWbWPBFNO3Lw4CISLFImsmi2xYFexIPTXWzxbLteBPZPvtt4/uWP2ryPhrjVj/TTRcHmXryx/rzcw1JZoTBMqh+f4iA18Xyaqc3xke/LFjx8q//vUvOeSQQ+Twww+v9BAYX5VocPCzpcOMm8LXG1pDxQ94D3hn1W7LL6gzNPJqt+UPrKqCaUq1YBpDhn/dVLPl6HSZSPdbRfKqph+oMmGLCsQzLW4KHIwN4zwt7K0WdwbTp0+35+MID5skDPbCAkZxcbF1Srlw4UIbJo6OHTvGNVKvtLBVtDSqViycEw2Xx5LPRZYNDQJhTNrbnS9Sp3MQLoc6nUyGjzM3X/FaYVTNhAkT5LnnnpPevXvLSSedtEXLXqiwVT5oCVk5QPEDhC3aDobUFX9A646ghcmD4gcM11ebkZIV34uMvdLc1M8mEBJ18lqK9DKCWLsTTdddNfa7VSZs4Z7gtttuswKU+zrlBdx///3lzDPPtGHskV555RUrIDnhqmvXrvY4fxHOMAz//vvv5aWXXrIPBdknvnPOOUd23313e02YSgtblWW5qbwfjjISX8y4doO+IoONsJaXnJkc3NekSZPkqaeekh49esipp566xR2NClvlo8v1+IUu1+MnulyPf1Sr5XrKiqParSl3iZSsEcmqLVKnoxGyThHpeJ5IrVbBiamnSm22eOnOP/98ufPOO+1266232mExx4gRI+Sxxx6Tgw8+WG6++WY7Cw/nk7g8QHAANF7//Oc/rdB27bXX2g1P6Qhy2C+lnMYDRXa8V6TJbkZabCSR3OZS1uJQifT8m0hu8jQlNFIPPfSQvSe0e+PGjZPhw4fb+1cSR2cj+ofObPMPt5qF4g/Vqm3EtCenSVR71fJQkT6Pme1RkU6XVqmgBVXaelGJDPmxHiFb586dN/r0QJODXymWUTnttNPssNm+++4re+yxhxUy3AwJDMUZQsQtwsCBA2XQoEFWKMMtAtqzlJOZI9L+dJF+z4js8p7ZhkgGldfioKSqI1G/o42ivNDKcW84MFXnpclB1/7yC9oO9Y3mHwzV5+XlBSHFB6rVzPbSoqgddslqkS5XiHQ8S6T5fklVjFSWKhW2WLbh+eeflz/96U/y4IMPWnskB5orbLVwd+DskhhmZPiQIT82BDKuYdiwZ8+e9hzo27evbYxHjhwZ7EkxCFwNTPrN9pRI492ktFZHiUhyvwa22247q/m77rrr5JJLLrHbhRdeaPcriaMaQr/A9QOLqit+wUejun7wC+xZqw2rfzHCxfiorXTTPYKd24Ys06HfGvxOKWijsEFyauXvvvtOXnjhBTuW36dPH6uxefvtt+3vwYMHB1dF/SENGzbMarAYTsOTOrZap59++kZ1J3+x9WIGxWGHHWb3ORh/xm4LI02EMTZnsInBLV/LGN+6xZoR6MoLk2/+srEf+I0dmbsvd274eDgcjtsdc+FwWtwTw6PklS9DNjejh/PCabl9Li6XFpMNaOwoYxo87he7OOJmkoFrCEmHjozzuReGaziGcEx8hN1x4ByOE3ZlgrBMnJxLOlxLmLT4zb7YtFzeXVruvjhOPvnNNS4t4iJtBG+XlruWMHG7tDiP88NpET/XEl66dKl9XlxaxMV+ruUvzwf7id/dB/fIsdgyoh5ImyFfjpMO+8L5dmXk0nL5JEy9EuZ87jecFvFQDi4t4uZ4OK1wGZFvwu4+w/VBWhx3aceWEWmBu5Z0ud6lBZSFS4tnkr+EXX24tFyZuXxz/+F8u2fXpcUxV0YuLfLr6oPyxb8c57ky4lriJhyuDwinRbzhZ5Z8kz+uj60PjlMfnEuYfBKXyxdpUS4uzLUQfs7CaREXfwm7MnJpkTb35e7DlZGLi3jApcUx8kOYayFc96RFvGyxzyjnuzLjXHDvGmHi5VlycZEv9xy5MuKvO85z5OJ2ZeTuw90nYdp1yjtchqTDvYbTcnG7a2PTCpcR+XZhV/eEOZff3Dth4gAXdnFxHWXEteTLlZnLi4ubfIK7lvsMh0nLlRH5Jl/8dfkOP0fx6iN8X8C9hcuIzaVFPjdXRqTl4iKfrkwIu/t0YfLJOYRdGbkwcfEhisLDlRFxsd+VUTgt8uyeG5e2qx/O5Xe4PsJhjse2Rxx3Yc4nLcqEfbFl4tJ2Ye4xtj4yFr0rsnCIrG95qmS3OWST+gB+EzfXUfeu/IF7ceUL4frhXP66+iAtwsRLPgjHUmWarV133dXOqsOFAXZZn3/+uRx66KHy2muvWW2VKzgyGoaKJuPcOLgKYX8Ywu6cWNiPDZTbqAxX2K4C2SoKhzfy647H/nUbuPtyhI9BOFzesXBam9vKS4uN++WBYiNMmYTD7jf7450fPk464WOxYfebDco7Thocc2m5tN3x8DG2zaXFeYTd+fwFd9zl2x3nZQnHVZm0Yo+7cGyZEGZzYY6F88qxcFwQG3a/2R++lrjCx2PT4lx3PteG74u/4WvjhcP3UZl8x96n+815XOvO57zYuMLXQvg4ccUe5x3nd2y+2WLjDh8nHM4b54bjjk2LsMu3SyscDsfF74ruKxzmXBeXC7vfnAcu7NJy53Pu5tIKx83feGF3LteFwxwP3xfHXNzuWDgtiI07Nsxv/rrNXctx4qKTIhwvLncuG2F3nOvAHWP/5uojNt/huFxa5d1XbFzufBfmeGza5aXF/nDYHXe/3XEX5rxw3Bxzcbtjsfl2Yf5y3KXF39i0Npdv+mAXdmm5uNjAhTkvNt/hcGzcseFwXPHSIq5wWhx3x1za7jmKvbZs/VLJWDVSMiJFUtxoP5NSVNDjGH/DcceG46UVDnOuuw+u4RhhtvLYZn62SJZ1/y644AK54YYbZK+99rLaKpx13n777cFZYrVaGL/fe++99hh/mY34n//8Z+OsRm6Q4cejjjrKHg+T9NmIMXAfbFaKjiPNbkuQwnU2YnwoG3Uj4A80Znw56nPsF04LwKb4AX0ja1p6z7JvRH65LGoIv/PzIrW3rZ1uldpsxeKEFGB5GozjWXTZwXEEIiRtBCvOZUoqqu/wwsucQ+eZqOC0tdARKH5Bg6L4A+8Y6n7FLxC2Nve1r6Qf1aJtxOXD6vEi62ZEJ6/lbHufilUibKFmQ8OCDQUCFFChb731lp2twsxExm7xuYX/ox9//NGeh43GDz/8YP0hOSdrGMMjdH3zzTf2RUaF+Prrr1stxYEHHmjPqUrIp9sUf0BgV/yB9wv7CsUvnB2L4g8oLryHBaiZhZjbXKRRf6nsii2ppEqELQSid99917p0uPzyy+Waa66RU045xQ4R/vGPf9zoXJJhwP79+9vZipdeeqk9d8aMGXLCCSdsXD6gXbt29to33njDnoPfLoQtZu1tK4eH6TZ8qFQMRruKX/BBpvgFw4ex9rVKeuN924jiY/1CI2x9K9JkkEjdLnTSwcFtR5XYbDEEwFDfV199ZWckMhzQqVMnOeaYY6RVq1YbG1GywrHPPvvM+tbC3wdG9Gi+3Jg/5zBLYdSoUdbInvDRRx8tvXr1itsYV4XNlkNttvyBZ1I7AX/gPWPTOvML3jPaRf0g9Qfv20Z8a818QuTX60V63iHS5SqpzPJ4qUYXok5Q2OLBxCYBu7J0e0BV2CofXa7HL5j1w0xiXa7HL6gzXa7HL7xfrqd4pcgPx5hGw/zt84hIs32CA9sW/UzcQiJrV0pkzYr4W0QN5RVFURRlm7Futkj+TyL1eojU3zHYue1RYWsLKf7sSSl+776N24b375fSDx+0f2VDcXCWku6o2we/YBjKrSyh+ANr2Mb6TlTSG+/dPsx7yTQYeSKNB4nkpc8SXypsbSGlP74jJd+9unEr/d9rUvb96/avlEadtCUL7NKYWDB69Gi7zBELci9ZsmQTOzFl68DViOIPDNHrUJR/IGypjy2/8LptLCkUmf+2efBaR9dAlPSxFVRhK0SksEBKZ4yS0gnf/m4rWzRdIhUIU6WTh0tZQXTNvciG9VI2d8Km8Uz7yR6rLB988IFd0oglhjD+x93F0KFDNy6xoGw92LIp/oBdJMt0KX6BbSz2doo/sMSStyz9XGT9XCMx7ihSv0ewMz1QYStE2bI5Uvz+A1L04jW/20p+fk+kePNOFYtfu1nK5k+0vyNr86X46xc2iaP4nXvsscqA4f3PP/9sjbiPO+44u/Xo0UPmzJmjwlYS0DL0D/XX5B9uKRPFH7xuG+c8b6SaPJFWR6WFb60wKmyFyMitI5mtu0lGh96/3xq3NqW1eduDjHY9JaN2YAuUlSOZzTtuGkebys9+4yue7bzzzrM+xliQk5cAT/rqbyhx1GbLL9Rmy0/UZss/vG0b8a21dKhIdl2RlocEO9MHFbZCZLbsJHkn/lVqX/zM77acwSdLRt7mbUZqnfuoZHXsY39n1m8quQdfskkctU79mz1WGfCej40KPsaA1cXZCNOAKYnhViRQ/ACbrWqxXlsNA5cz+nHoF27NYe+Y96pI2XojaB0pktc82Jk+qLC1pdRrKhkNmm/cpEEz8ylgNv4m0XHf7NmzpU2b3xbOxGcW6niMF9WxY+LMnTs3+KX4ADZbS5cuDUKKL6xYscIu2aP4w7x584JfHlGyTmTJ5yKRUpEOZwQ70wvttbeQ3EMukdyjr/1tO+payT7yavtXspO3zMG4ceOkc+fOQShq0M0wog6lJAf1aK0oivJ7vGwb838WWTNZpO72UZcPaYgKW1tIdv8jJHu3P2yy5ex+ov2bkZ08dfnuu+8uxx57bBASadGihRx++OHqQTtJUJ6KP2D3w6L1il+gicfeVPGH5s3Tbwhus+AKadmXIkVLRTqcmXaG8Q4VtpJAKvxeDR48WHr27BmExK4TiQCmHU5y0JltfsE7xlCi4heYPqhfQL/w7j1bP19k5UjzwzxnbY6L7ktDVNhKEBoSbVD8A1sSxR94x7BbVPyCST3qZ8svVq5cGfzyhPxRIgUTRJofKFLrNzvndEOFLUVRvEA/aPxD68w/vKqzshKRVb+IFM4VaXOMkWiSZzedbFTYShCMCZkdqAbXfqE2W37BO6buOvxDbbb8wyubrbXTRVYMF6ndVqRRf9NQpK9PtxorbCEcuSHA6gj3pl+V5aP2P/5RXd/V6oyaWPiHN21jxLQHa6eJrBptvp4PFslrZXamr9KjxgpbbnHUVatWWZcKxcXFW7VxLX5k4h3bllthYaG1l8ChoDoV/D26NqJf0GmvXr06CCm+oGsj+oc3ayOWrBVZ+YORDs3fJruK5KS3M9YM89VRrT87PvzwQ7nppptkzJgxwZ4o3DYPFQ14IqvSEw8dQboNJZIv8sTsRTzR6zDnpkyfPn2jd34l/aHDXrJkibRt2zbYo/gAdYbnfzzJK34wc+ZM6dSpUxBKY9bOFPn5FPPD9G19HhNp3D+6P02pscIWoC6lEU+0CLg+HYUZfBMhSKrH+d+DNlKXPfIH3jHeVbX/8QvqjHZI2yB/YLQmLy99Dc0tDCGyDuKIo0Q6nC2y410iOelt01mj3wAaATpcvLJv7UYjwpAdQk2849tyo2PSRi4+CxcuDH4pPoBfNG+GN5SNODMNxR8WLVoU/EpjIiUi89+MDh3iMT47/ddz1J44CaAhq+YKwmoHdm2KX6gjWv+gznRig1940TaWFoos/likbjeRJrsw4y04kL6osJUgDB+iIVObKL9IezW58jt0ood/qBmDf3jRNi75VKRosUiDnkbg8sP2Vt+CBKExqV+/vhW4FH/wbv2vGg7vl/rZ8g/aRrWz84tmzZoFv9IU7LVmPi2Sa/LZ/GAjxfjxfKmwlSAMIWKzpapyv8jPzw9+KT7A+4UbAcUv1q1bp64fPAM7u7QG31orh4vUai3SdHCwM/1RYStB6AQwAFVhyy+04/YLbCL5qFH8grZRHQj7Rdq3jfNeFSktEmm+v0iePyuBqLCVINhqMZSoNlt+oW4f/IL3S4ej/AM7O7XZ8ou0bhvLikUWDjGSS7ZI2xO8MIx36FuQIDQm2JIgcCn+0K5du+CX4gPYbKmdnX/gVFk/bPyiTZs2wa80ZOmXIuvmiNTpLNJoYLDTD1TYShCmybL0i9ol+MW0adOCX4oP4EJg/vz5QUjxBTzIY7el+MOMGTOCX2kGhvGLPowu09PlCq+0WqDClqIoiqIo6U2h+djK/0kkq5ZIqyODnf6gwlaCMLyBt3a1S/ALhjcUf+D9Yo09xS9YE1H9o/lF2rpYWTYsOoTY8lCR2mk81FkOKiEkCIa7agTqH7owrl/wnqntj3/okmH+gfIg7ShdJ5L/o0jxcpF2fwx2+oW+BQmCLQlTZXV6s19gS6L4A+/XypUrg5DiCwUFBbo0lmdgg5x2FEwywtYokXpdRRrtFOz0CxW2kgA+tnRtRL/QCQ3+oR80/kGdadvoF+nXNprnZ/X4qMDV6iiRHD9NQFTYShBU5AxvqKrcLxo2TP9V4pXfYBixbt26QUjxBYak1C2OXzRo0CD4lSYUrxRZ+ZOR3NeINNtbJCsNhzkrgUoICYKQxcKdKmz5hRpb+wXvV1rakiibhQ9RXTfWL9KqbUQrunaGyPKvRZruGV10OsPPvlYlhATBZou1pPir+IP6bPILhqPS0pZE2SzY2bFkj+IPCxYsCH6lARHTr66ZHBW4mgyOrofoKSpsJQFdqsc/tM78Q+vMP7TO/COtRmlKCkQWfyyS20SkUX+RLH9NCVTYShDsEerXr692CZ7RurW/X0g1EYaimjQxDa7iFdhGYmah+EOLFmm0uHPxiugSPQ36mq0X0ntwwD9U2EoQZiIye4O/ij/oEiJ+wYy29evXByHFF3D7oLNI/aKwsDD4lQYs+VxkQ76R2o2wVbt9sNNPVNhKEIQsHk4VtvwCOzvFH3i/1q5dG4QUX+CjRu1Z/WL16tXBrzRg3itRIYtZiJl+r0SgwlYSULsE/9A68w+tM/+gzrTe/CJt6mvdXJEV34vU6SDSaOdgp7+osJUgzmZLpzf7RcuWLYNfig+ozZaf4LOJJXsUf0gbm63pD0V9aqHVym0a7PQXFbYSBFsSVZP7h05H9wveM132xT9oG9XEwi/Som1kFuKCt0RyGpkv48ODnX6jwlaCYPyJXYIagfrFihUrgl+KD9Bhs86e4hfY2enSWH6RFmuQLhkqUjhHpEFvkfo9gp1+o8JWEsAvidol+IW66vAPXaXBP7Rt9I9t3zZGRBa8Ef3b9mSRrFrR3Z6jrVeCYI/QuHFj7bw9o317v6cR1zR4v9LK/49SKbCzY8kexR/atm0b/NpGrJkRXQsxM1ekdfUYQgQVthIEO5Lly5erqtwzZs6cGfxSfADbn0WLFgUhxRdYYimt/DYpFTJnzpzg1zZi0QciRUvMF/FpIjn+G8Y7tpmwhZCCIV48WycaVo5xTjzjSoxluY5z2NQAU1EURVESh/51m1G6XmTl9+bvOpGO5+KHIjjgP9tE2MKg/JVXXrFbWMNAJbNA8DvvvCMvv/yyvPnmmzJy5MhNvow4Jz8/X4YOHSqvvfaavPrqq/LFF19ss68n7BFycnLULsEz6tSpE/xSfID3S5d98Q/MLNQtjl/Url07+LUNyP9ZZPUEkbrdRBoNCnZWD6pc2EIL9cEHH8gjjzwiDz74oEycODE4IrJ06VK5++675ZlnnrFDBsOHD5d7773X/nXDdGiyXn/9dXnsscdk8uTJMm3aNLn99tutcLYtJHJsSerVq6cNimc0bVp91NM1AQytWWdP8QvaRj5GFX/YZm1jpExkxQ/RWYgMIWZUrz61yoUthKuXXnpJLrzwwmDPb3z00Ufy7bffyp133ik33HCD3HzzzdKqVSur4XLTUefNm2fDBxxwgNx00032nBNOOMEKbtOnT7fnVCUMea5Zs0ZdP3gGdnaKP/CRpkss+Qdto9qz+sU2axvXLxLJH2mELCOWtDgg2Fl9qFJhC58rzz77rAwaNEh23333YG8UhBaGA7t37y4DBgywwwZ4+d5tt91kypQpdugQxowZYzVY++yzj9StW9fOdEHYckOLVQ15oTHZFlo1ZevRhaj9gvcLrbbiF7oQtX9sswkNayaKrBoV9Rhfp2O1steCrFsNwe+UQmP57rvvyqhRo+TKK6+0L+B///tf2X///WWHHXaw0jQ2XH379pV9993XXoPAhfPJL7/8Uvbaay9p06aNvPfee3aGy9lnn73RhgNV9b/+9S9p1qyZHHTQQXafY+rUqfLJJ5/IjjvuKLNmzbIbQ3/YEvC1TBo04gh7wD4aiHhhhjLcb/LPtYR5OFGVE6+Lywlf7vzYMNcSB4JabJi/pOXicmGOscXmm7jZXNwQzjfn8telRVwuHJuWi9tdG5tWvLhjwy4dtnC+46UF7lruITYtVyaE46XlfldURoTDZYTg36hRo03S4q9LK1xG/I2XlgvHphVbHxwDd5wwf13cDEG7fMeWEWHOd+fGlhFh0nfHuZZrwmm7Y+54OC3SdnHFlpEjnBbXuPi4NpxWuExiw1wbvq/YtMhnbNr8Dd8XWhLeedIMx0WY68PXhsuItMJlFJtv4G84LXeM68JxcR2Er4VwGYXTIi7+Enb5dMfc8XBa4fsiDO44x9gXTps4w2nx26UVjtsdD+cztozC5c+5FZWRS4trw+Xv7pMwdcYHMWXujpNObFoubnetC7vj7lyXVrg+wmlDbBmFw+F8uzJyYXfcnRuvjGBzaRHn5vLtwrHHIVwmlSmjzaUF7pi7T3cfEJvvcHj9+vXWpjWcFvtdfOG6dGmVF4ZwPiGcFvni2IYiI+At+UQyF7wuxW3Pkw31B0mJiWpzzw2/wYVjywTCYeKyaZnN5dMdiy2jeGmFw+EyCZcR8RIP4ViqRNgik9hWYYuFFgrNFcJVWNhCqMIwvnfv3lab5cCOa9iwYVYbtt1228mHH35ohxNOPfVUe1PAjWGzxVjzEUccYfc5ELaId/bs2TJixAi7NW/e3Np/kC8EpCVLltjOl98UJkOWhBGgKHzyxgNIo8FvPFmzH4GN8xC2KGQMC7E1Yx9xky/Op8HhNxv3g1aFtLjOpUUnQhqcT9yk5fJFhZIXtHesyE6lctylRbyk59KiXAi7adfkk+soN9LmWv6Stktr8eLFNi7iJi2OcQ33xfXuuHs5wmVEmPokLe6DY5SRKzN+k3fKNpwWcfMCuPO5D8Lcd7wy4lricGkR5jf3zH7Kn3S4T/IUTgvCZUT9cy8uLe6DPHAt59PYsJ/zuQ/ui/LkWuKmTMJlxPFwfVCO4XxzTvi+uI6NMB8L/HZlRFw8J1zLi8z55MOVEWm7tLgH6tClRb7JL+Xi7ot4uZYy47grI+ImLVdGrtHgWsKky+bSom6Im+sJs+4d8boycmXCPvdcuXxT9uEyojxIj+OEyRdh98xzX+Tf1Qf1RZyUk3uOXH0Q5j7ds8A9cHzhwoX2WtKmPlxa5Ju43XPEPXKdSwuNuatb8kRc5MvVPeVA2pxLuqQXfs7C7wfrpnL/hMl/7LvIfZOPcBm5uIgnXB883+xzbUhs3ZMW8VI/nEdc7j7cu+nKjGu5D5cW5QOujEjLPUf85T5J09U9zyzHiJtrXdyu7rlPjpMPZ3DtnmmIrXvyFC4jwi6t2DIiL+XVPb/JD8fJL/fIOS4t6pYyYiNvpOXCsWlR9pSTyzfxhuuea8kvcbvniLJy9UEZufLnWo5zT64+KBd3H6TFvbm4gTB5IUz58re8MiIt8kHcvFukRZj7cG2KS4t7ID/E7Z4j6sOlhdKCv8Ttypd4XBnxnBGXqw/yTlrETTyk7dLityt/7jm2PlwZrVk6UXLmPSXZmWWyouFJsqqkiT2f+nJpOVxaQNquzCgTriE+6oG0XZjjtCHcI2VE3ZMX7tGVUbg+XJm4fHIu5erS4lzO43rqg7TYTzy0F+Trd5jCSjkmU5EHH3wwcumll0ZmzJgRMQUQGTVqVKRXr16Rt956K2IyGJk3b17koIMOitxzzz3BVVGGDx8eMQJZ5Ouvv46Ym43cdNNNkeOOOy5ibjA4I2L377zzzjb+WD744INI3759g1DyMZUaMQ3WJvlR0p9JkyYFvxQfoI2YM2dOEFJ8wQi8tv1X/GHKlCnBryrC9N+RZd9FIh+1jER+PjMSWbcgOFC9qBKbLdw5fP/991aaZkjv3//+tx1SRPpEa/XNN99Y6Rnpmy/fMEjTXOdmImEwz3VInA4XRiJXFEVRFGXriKuVSSVlRSLLvxUpWSPSaCeRvOrZj1eJsMVyNgzvde7c2ars2FBfGmHPqvkQllAXdunSRcaNG2dVcYCqj+FHjqH65yHo1auXVd1NmDDBngO//vqrPbd///7BnqoD9SL546/iD+r6wS9Q69MGKH7BMBEf0oo/0F9XKTgwXTDEPCw7GGFroHnZq+fzUiXCFjZSZ5xxhlx33XUbt7POOsuOjx911FFy+OGHW4HluOOOs+PjTz75pNVwYV/FDMU999xzo9aqZ8+e0rFjRxkyZIh1I8FMRXxusZ/zqhoEQDoCxS+0A/AL3jP9oPEP2sYq15QoCVHlbWPBRLONF6nfXaRBz2Bn9SOtpASM4G+88UbrR+vMM88UbPe7du0qJ510khXGAI3E//3f/1lDNf5eeumldggRJ6nMLqtqGOLEUA5jOsUfEOoVf+D9wqRA8QvaRkYdFH+gb61S5rwgklVHpMkeItnV13FxBoZbwe8qhcaToUQs98OSNMILw4pY/vNF5Gy5wl9HHOMcJ+DwxcvsgHhfUMxexPkp/rlSATMR6AQQ9JgNofgBqw8wC1bxAzpstN3t27cP9ig+QJ0xe819LCvpDzP4u3XrFoRSTKRE5OO2IrVaigx8TaS+araSDgISL2GsypIplIzzY5/B8XjTKFFNMwTJcTZ+bytVNfdB+jrE4Rc6mcIv1GbLT9Rmyz+q1J51/lsixcui9lr1ugc7qydqbJQgCHkIiIpfaAfgF/qe+QkfoWrT6hdV1jayFuKc50Sy64q0Pcm85NX7OdG3IEEY9sRJmtps+QUOLxV/4P0Ku3tR/AATC0wtFH+Idb+UMtZOE1n5o0huC5GmewU7qy8qbCWBbTWEqWw9+rXtH/qe+Qd1pvXmF1XWNs5/U6RkrUirI0RqGYGrmqM9ToIwtIEtiQ5x+AXrbCr+wHCU+kbzDyYOMcFJ8Qcch6ecknUiS76IGsi3Pz3YWb1RYStBGN7AMSszJBV/0CEpv+D9Cq+PpvgB68Wp6we/wGl4yln+jci66SIN+ok07BPsrN6osJUgeM7A470KW36B2xHFH3jP1PbHP2gb1Z7VL6qkbVz2tUjRMpFOFxkppGZMVlJhKwkwxq12CX6hw77+oXZ2/qFto3+kvG0snCeyalR09mHLQ4Od1R9tvRKEabLYbKmfLb9o3bp18EvxAbXZ8hO12fKP1NpsRURWDBcpmGQSOlIkr3mwv/qjwlaCMHzI8IYOI/oFtiSKPzCMyKoRil/QNuowol+ktG0sKRRZNcY8GEvMF+/RRgKpOf4OVdhKEDWQ9xM1kPcLNZD3EzWQ94+VK1cGv1LAuhmm8R0hUrezSAMM42uOCKLCVhJQuwT/UJst/9Chev/QttE/UtY2sgzz2ulRzVbzA0RqtcYRW3Cw+qPCVoKw+HTjxo218/aMDh06BL8UH+D9atGi+js+rG5gZ8f6too/tGvXLviVZEpWiSz/TqRsvUjjXURyGgYHagYqbCUIU5uXL1+uqnLPmDFjRvBL8QGWxdIllvxj6dKl1sxC8YdZs2YFv5IIWq2ipSJLPo0KWvjWquZrIcaiwpaiKIqiKCkkGEIsmGwErb4itTsG+2sOKmwlCDYJTG1WH0B+Ub9+/eCX4gPY/dSuXTsIKb7AEKKaWPhFStrGsg0ic1+NunpoNFAkp+a1vyohJAhGu3QCKmz5BXZ2ij/wfqmA7B916tRRYcsz8I2WdEpWiyz9TKRut+gwYg1EJYQEwZZkzZo16kvGM5YsWRL8UnyA9yulU9KVlLB69Wpr16r4Q0raxoXviWzIjw4h1mkf7KxZqLCVIDhbRODir+IP6iDTP3QSin/QNqoPQr9IyRqkc54VyW0m0vIQI3XkBjtrFipsJQi2JLh/0GFEv6hbt27wS/EB3jN1IeAftI3qH80vGPpNKgVTRVb8EBW2muwW7Kx5qISQINgj1KtXTxsUz2jevOasyVUd4P1KiS2JklKws0PgUvwhuW1jRGTmE1E3D62PqnG+tcKosJUgDG2w9IsOcfhFSnzJKCmD4ahFixYFIcUX8EGofrb8Yvbs2cGvJFCyRmTp50bSyBNpc3yws2aiwpZSI9ElRBRFUX5PUtvGJUNFCudGnZjW7xnsrJmosJUgDG/oMKJ/6DCiX2ATqcOI/qHDiP7RrFmz4FeCRMpEFn0gUrpWZLuLzEtcs12AqLCVBHS2jX+oqw7/0PfMP5ilrTO1/SJpbePaaSKrfxHJqiPS8ohgZ81Fha0E4cFct26ddt6eoT6b/AJBq6CgIAgpvrB27Vq1Z/WM/Pz84FeCLBsmsm62SNuTRXLVibQKW0qNRLUk/qEaEv/QOvOPpLSNLM+TP1KkeJlIu5MwBAsO1FwqFLZ4WZhR8vPPP8vbb78tn3/+ud3PV+akSZNq/FcLrh+wS1CbLb9o1apV8EvxAWy2dIkl/2jQoIHabHlGy5Ytg18JgKCVPypqFN+gd7CzZlOhsLVw4UL5y1/+Irfccos8+eST8sYbb9j9TMO+4oorZMqUKTasKIqSKnT2qKJ4QqRUZPU4kTXTRNr8QSS7XnCgZlOhsPXWW2/ZtZLuv/9+OeOMM4K9Ip07d7YS8IgRI4I9NRP8/6DlU5stv1CfTX7B+6V2dv6hayP6x+LFi4NfW0nxcpGVP0aHDvEYj48tpWJha+zYsbLffvtJ9+7dgz1RGDZr2rSpLF26NNhTc9Gvbv/Q5ZX8Q98z/6DOtN78IuG2cd0skeXfGUFrd5F63cxDoG0tVFgKCFXxtDbsW7ZsmR2Tr8nk5ORIw4YNre2W4g/t2rULfik+QDukvtH8Azu7vDzVbPhEmzZtgl9bQVmxyOpfRdbOiGq1aqltrKNCYWvnnXeWDz74wLo3cDBb4YsvvpAZM2bIPvvsE+ytmTBBAFW5DiP6xYIFC4Jfig/wfjFRR/EL3AgUFRUFIcUHEjKx2JAvsvBdkdrtRRr1NxKGLh7vqFDYwk6L2XZ9+/aV5557TkaPHi2HH364XH755XLooYda262aDsKnTnH2C2ztFL/QDxr/0LbRPxJqGxG2VnxnBK1+Ig16Re22FEuFwlatWrXktddek0svvdS68e/QoYNVDd96661y1VVX2eM1GewRGOJQuwS/0Ono/qFD9f5Bnal9pF8k1DYu+tBIa2tF6vc2wkPrYKcCGearo1p/dnz44Ydy0003yZgxY4I9yYUvN764Ebi0UfGH9evX1/gPBZ/gPeOLW4Vkv8DMgnaR9lHxg61uG1kLcdhA87KuF+n7T5FmewcHFKhQOmA24tdff13uNm3atODMmgmCVmFhoe0MFH9QNwJ+wfuly/X4B7a+OmTvF6tWrQp+bSH41iqYIFJnO5EGfYKdiqNCzRZaoZEjRwahqEd5Gj6+WPjKPPbYY+Xiiy8OjqYfqdZsYfzJw9moUSP96vaIyZMnyw477BCElHSH9gbD3fbt2wd7FB+gzrD5rVu3brBHSXemTp0q3bp1C0JbwOgLRea/KtL9VpGuV5kdaloTpkJha+bMmbJmzZogFIWGD0/yCBnXXnttWhvJV4WwxWxEhC3cQCh+MH36dOnSpUsQUtId2hycK7dt2zbYo/gAdVavXj2pU6dOsEdJd+jzO3XqFIQqSWmRyCdtRLKMUD34k+gyPcomVDiMSKH37t17k22nnXayy/esWLFC5s2bF5xZM0Gb1aRJEzXe9YyOHTsGvxQf4P3S9Sz9A8fXahvpF1ulPZ7/pvkiWhFdB7Hepg7QlShbZdHNzDu+VHB+9uOPPwZ7ayYsRYH/H768FX9As6X4A3Y/6hvNP1hhBJtWxR/QbG0RGMYvfCv6e7vzjYCgE8XiUWGpMESGMBHeWDuJYblJkybpSvyKoiiKUlNZaz5c80eJ5BhZoNmewU4llgpttp5//nlrMBdm7dq1Mm7cOLt8xr333mt9b6UrqbbZQqPFVNnatWvrUKJH8MHAQuqKH6DZ4sOPIXvFH7DrZRhRl+zxB+zsWrRoEYQqwZR7zXanSIezRPo8EuxUYqlQs0WhY98S3nbccUc5/fTTrWPTmr7GHD5ksNtSH1t+obOj/IL3iw8axS8QstTHll9sUdu4YZXIyhEipYUiHc8NdirxUKemCcJsRGZrsiC3zkb0B9b11KWm/AENMvY/CS2Sq1Q51Bmdt85G9IdZs2bJdtttF4QqYMnnImP/TySnocie35mvIu0Dy+N36hhkL1T2GH5XZtP1yqKOTau5zFrt0AkN/qFtjX9o2+gflW8bTb3m/yxSOE+k3R9V0KqA3wlbeGnGdxY+iCqz3X777cGVNROGN7BJ0GFEv2jY0HyJKd7ADGgd+vUPtWX1j0q3jQhZ+SONzGWEs+YHBDuV8vjdMCLG3h988IGMGjUq2LN5dtttNznyyCODUPmgLWO4jQ3JmSE3ZjKiXg4v4kx28vPzrdDnzmHcP3wOHuxZBoLzIF48Dl0bUYkH09HVBsgf3KoVamjtF4x+0Daq3ZY/VGptRMSGxR+J/HKpSJPdRPo8KpLXLDioxKPKbLZYHuWFF16QX375xc4qotE8+OCD5dBDD7UG9whKNKjDhw+X1157za7J2KxZMzn88MOtMMdvdw72Npzz7bff2jDxHH/88XG93upyPUo8dLkev0DQ0uV6/EOX6/GPSi3XU7peZIYRsCb+xQhaD0dnImZq/7c5KqWKQR5zy9IsW7bMGj26LXYpn/JAs9W6dWs59dRTrfBz4oknyujRo+X++++3LyTQATKEiUbrkksukT333FOGDBliN+cYD43XI488Yq897bTT5JRTTpFhw4bZ4Uy+ohSlMsTTgiqKotR0KtU2rl8gsnSoSJ1OIg36qr1WJahQs4Xm6M0337Se4p1RvLuEStlvv/3kpJNOsuEtgTjef/99K2zdeeedVrBCYPriiy+scMUyDwhYjz76qPz000/2PPx58fvKK6+U6667To4++mgb18cffywXXnih1Xbtvvvudp8j1ZothhApE7Raqir3B7SRarflD7RDmA6wzp7iD9QZH886U9sfKmwb6f+Xfyfyg+l/2xwv0vNvInlb4JerhlKhZmvo0KHy5JNPyoABA2TatGl2qA6BhuVOEIh23nnn4Mwtg2EB1JWol4mHl5Ihxl69etkwYFPTo0ePjRo0BDSGF1FLsz6jA0GNxphhxfLguNsqkC+3COLjXpIZp5J6cMyr+APvGbYkil/wIUrdKf5Q4fJK+NRa8pkRukpFGpn+P0cdDVeGCjVbV199tf2avOGGG+Sss86yw39HHHGEFbxuvPFGufvuu6V798otPMkQ4DXXXCM///yzFU4QtK6//nprc4VAdfbZZ8s+++xj9zmw4br55pvltttuk8GDB1tHqnivf+WVVzYa8REXwtdee+1lhxjDoNm66KKLrLd7xxVXXGHjQmhDgneLaWMXRsOwcuVKGyfXoLliwW20VgyD4l2XBoQvNc7nGEsYYaTftm1b66ME8LuF0T7DrgyhYtOF8Lhw4UKrESRuZ+9FGG/mhEmbuFl0d/78+TY/2LchgHLMGXbjbHb27Nk2LWcvRj7IL+cyAwgv6Rjtcy5DwAi0hInbTTBwac2dO9fGRZ65F/JNfpwwPGfOHHscD97kl7yQN+KmrKg/yoj74FrKiDxQZpyLsEweScvFxXNFHXA+Ait1QZj6IA3SJR7yDvhY4rxwWtQH5eviJi7ujWeDvLm0qA/2uTJC2Np+++1tGVMm1CV55FrANojnlTLiPkiL4W6uJR7OJx+UEfdBXsP1QZzuOaIMuB/W9nN1zz0hPHAeGlvy5SaFcB+UAddS18RHWu45YnPPGXVFnlwZERfPCOeTFmXAPZBPygwnxJSZe47Iiysj6pqNMqRuOUbYpUXdU/7kE/BTxj2yETdpcR/huucZJEy9UmZu3TXKjDrj/QHeHe7XrX9IeVI+TiimPqZMmWLzzHXUB++Sq3vOJy3yTT4pI2w7gbTJD/kEPhi5B+4zXt3juJm4SJ/3gXKgPihn3kXi5jhwz+xz7w/PGXG6yTukxT3ynlO3xEU+KH/O45kmLsqVa7kPypuy4Dlz7wdhyog88BxSt67uiRvwjUS9U2ZcS1qEuQ/3vnCtKyPqNvzeu7onLZ4T8kh9cq2rD/ecxZYRZUh9cB+UNeXCccqBuuMcV7e855QFcZMWx7kH4mY/cVE/zkSF4+SbuCkPrict7j227kkXeMYpX8qINNxzxvvh2gjqjTIiH9wrZcp9u+eKeqZMCBM390AdETdh3lOebdc/kG/eM1f3sWUUblfJG/Xp0uIY98L55IN0yB/1R/55TqhX9xyRFmFXH9Q9cbn2iOu5ljJz9+nKjPIifY67MiJN8gZcw70Tvytf0nHvYpf2DaXs2/2kqDRHira/T3KaD7LXch+UF/XjnjPSJU3KiLSIy4WBMiIfrs0mL7wf7pmlPnhuyBPxci+kRdyEaQ8oM8qI+uA612aTFvXqygjvCcTl2j6uJx/UIfHyftAfkD/yQRyuTCgPyp26B+qOZ9Q9s7xPlA/lSN2Q91gqFLbwFI8wdPLJJ8sZZ5xhh+4YNuQyhvO4gcsvvzw4e/NQEO+++67Vio0YMcJW/p/+9Cc54YQTbCGcd9551iCeeB0jR460gh62XPvvv7/8+c9/to3RG2+8YW/Mgbatd+/e8tRTTwV7oiBscf3nn38e7Ik2iBR2MuDh5gWgMngwFT+g40bYUvyAxpYGnI5X8Qc6Qjp/OmHFD1CkdO3aNQjFYcUPIt/sZqTg00X6Pi6SrUP7laHCYUQkPKROJ7Ex9IdkiIDhvmIrC5IrghoaMYSuO+64wwpHX3/9tT2GNOikZwcCGhIzL6yT+AmTBweCH1ImXw/xQKJGanVbsgQtQPpF0OKv4g98mSj+4DQHil/QNqI1UPyhwlUaZjwsktdcpOneKmhtARUKW/369bOqfwQdbKP+97//yTPPPCMPPfSQ1UbhZ2trYeo98TKMgUqPzQ0zAEKUU9s5VSdqeQQyp5IG1I6oA7fVgtioHStQECppBpoSxR94v3jPFL/QttE/Nts2Fq+MzkKsZT5WmxlhS6k0cYUtBBxm/aFVYugO+ya0QwcddJD84Q9/sBotwswAxHC+IhhfpQLDLx5/GU50Y7FotgYNGiTjx4/faEOFtgqDeCRtxuqhb9++VtNG/oiXeBgiZNyUmZFVDVo28qkdgV8wvKH4A++6s7lS/AGbli0Z/VC2PU7BEZeFbxmBa4VIw34idbaNcsNX4tpsYU+FQTpGd2iujjrqKCsQoVmi0UMI4zcCEn8rgiE/3DMwWxDNFEOCkyZNkgkTJlhBirQwpkXDdc4551gjx4EDB9oOkRmK2Iodd9xxVh2N0eS9995r84ggiLCGuwgEtbvuuut3w3nq1FSJh9ps+QXvudps+YfabPlH+TZbRlT4Zk8jQY8XGfCySKvDg/1KZYgrbKGpweXD888/b2dYYSuBpT8zCXv27Gm1SFsCWp+JEyfKq6++ag3e0UwhXP3xj3+U/v37W4ELoY2sMIOImYY4KmUmAob5DF/ywgLCHjME8NGF3RfXEM+BBx5oZx/Ekmphi/xwf9iUoO1T/IAPBj4WFD/gPUfg0g8av6DOaBfjzc5S0pNy28ZVv4h8a4QtXD3sP04kOzrapFSOuMIWuxAiUP+iScKdAg5DEYgQaHABgRCEsXplNFtAfLx4DLsRPy8fDWe8l5B03Usa7xyuR8Bx6mk0XuW9zFWh2UJVjuZPOwJ/qNSSFEraQHuAloQPMMUfqDNMQMqbvKSkH5j34GXgd4y/zhx8QKTbTSI9bjXSg67CsSXEVcUgQCG8MGsPPxnMGmTY5aWXXrJaKJyc4sz03HPP3ehbqCIQnBCKUCejpSLu8gQkhBbOK+8c8sdwIS8wW3nxVBVx5FUlzUH4V/xC3zP/oM603vwibtvIWoh4jacu252ogtZWsEXjXthRvfjii/LAAw9YT+8MNT733HPB0ZoJgh/DqpXV8CnpQTLdfyiph/dLXQj4R3mjF0r6ErdtXPKpSOFskYY7iTTYMdipbAmVErYYssMB6VtvvWW1WhioYxR+zDHHWMP0mgwaNuehWvEHbBAVf6DDxv2L4heYmqh5hV84L/wbYVmeZcNEipeLdLki2KlsKeV6kGc3/qy++eYbGT16tPXajrsF/G7tuuuudokeNF3pPssk1TZb2I1h8E85bOnEAWXbgXsRtf/xB2w9cf2AWYPiD/g/xNRDJ6P4A0vWbOL0ec00kTEXRGch7jtKpLa2m1tDXM0WDkP//ve/ywUXXCB33nmnnfnHcjgPP/ywXZvw/PPPt2sY6nTeqFCKwKV2CX4Ru1KBkt7wfjFLSvEL2kb1QegXKA82YeUPRuCaLNL6mKjneGWriCts4cX95ZdftirgBx98UN5880059dRTZe+997a+t3QMflMoD7XZ8gu1//EPHar3D+pMXeL4xSbDvqWFIqvGiqxfLNLyMJEMHb3ZWuIOI/IlwuaGxXwWJFI9jBguPhW4/IEZN9oJ+IN7z/Qd8wutN//YpG1cOVLkl0vNzvUig94UqduVyoweU7aIuL0NmhqkW14QfUk2D2rypUuXWj9Aij/gZ0vxB2y23DJeij/gZ+t3w1JKWoOfLUukTGTdTJE1k6JarbyWKmglgH7aK4qiKIpi2ahg2ZAvsvzb6O9GO4tkR1dxUbYOFbYSBC1gOjhWVbaMJk2aBL8UH2BYwy1Gr/iDztL2D9b5FdZBLFoisvhTkcaDor61MlRcSAQtvQThK0Btf/xDOwD/UAN5/9DJQ/5h20aGEDGMt45M+4nU7hgcVbYWlRISBFsS3Ajo9Ga/YDFzxR8w2sWRsuIXrK2r9qx+sXz5cvPCFYvMf02kViuRJrsZqVlX3EiUSglb+N268sorZfDgwTJgwIBNtvvuuy84q+YSZ0KnkuaocOwfup6lf1Bn2j76hW0bS42wtWSoSN1uIo36q2F8EqhQ2Pr000/lsMMOk88++0xWr14tRUVFm2xodmoyqMlZWFtttvxCPZH7BUP1DRs2DEKKL2Bnp8v1+EWzZs1E5vxbJLLeVGBPkTodgiNKIlQobL333nt2/cMJEybIuHHjfrddf/31wZk1EzoBxrjVLsEvdCFqv+D9Uke0/kHbqDatHhGJSO1aRjie87xIXhuRNscEB5REqfAtQHPFWohKfLBHYM22mq7h8405c+YEvxQfYGhjyZIlQUjxBdZG1GWWfCAism62yMJ3ZNW4R0RWjzWSciOR+jsGx5VEqVDY2muvvaz3dRUmlOqEaiIVRVECCiaJTLpNZNSZ0nLBjWaHEb6Kl4ks+VSkTCc4JIO4y/WEee655+TFF1+U7t27S4sWLawPjnBH1a9fP7sodbqS6uV6+OJGu4VdgqrL/QH7Q9b+VPwAQ2s0JPi0U/yhsLDQDiWq2440BmP4GY8ZYesW8zvG23+TPU0n/0TUz5aSEBVKB99//71dJgOhhcWpn376aXnqqac2bhyvySBssRyFzm7zC4Z+FX/g/UJAVvwCtzjq+iHNWT9fZMW3vxe0YM1E01iOCAJKIlQobD366KMyevRoayCPduinn37aZLv66quDM2smKAYZYtXpzX6hdiT+oZ22f9A2qsuONAefWiXlrF9ZVmSEsMIgoCRChcIWs7ZwbVCrVi37dYm7B14ewizFoDOE1P7HR9RVh3/oML1/UGfaPqY5dTqKNNnd/IhTT/W2jy7XoyRMha0XGpvJkyfLu+++K+eff74cffTRcvnll8uQIUOss9Oa/tWCPULjxo3VJsEz2rdvH/xSfID3S32j+QdtIx/mSjpj+vDsumaLWXs017xvLQ8XadAn2KEkQoXC1vTp0+W6666TV155RTp16mS9yNPo/etf/5K//e1vNd6Owhnu6jCiXxQUFAS/FB/gPcPYWvEL2kadyZ7GsAbiyp9F5rwgUqu1SLvTZVXjk0S2u1Ckx20i298gkqXCcjKoUNj673//a2cA3XnnnXLPPffY7e6775bbbrvN2nENHz48OLNmogbyfmLX/1K8AWFLDeT9Qw3k0xzcO8x4RKRooUinS+zMwyVt7jB/nzThi1XQSiIVCltTpkyxrh169OgR7Inau+DodMcdd5SxY8cGexVFURRF8QJGY6Y9JLLoI5HmB4m0OSE6nKikhAqFLQzkly5dGoR+gy9NvAPX9GVPsNlq0qSJ/av4A0Piij9gs9WqVasgpPgC6+zp0lhpyrJhUa1W/R4iXa+ODiMaOnbsaP8qyaVCYQsP8thrvf7668Ge6HTe+++/37qEOOqoo4K9NRNU5Aidqir3i5kzZwa/FB+gzVm0aFEQUnxh2bJlamuXjuDIdMTRRgKoJdLlKpHG/ZlWbw/Nnj3b/lWSS4XC1kknnSTHHnusPPTQQ9aLfOfOnaVPnz7y9ttvyy233CJt27YNzlQURVEUJa3ZsFrkpz8YgatApOXBIu1PDQ4oqaTC5XocfFW+9dZb9i9DMIcccoi0bt067X2opHq5HjRaGIHii0zdP/jD/Pnz9UPBI9Bs4fVf3T/4BXXGMKK6f0gTcGA67UGRKX8TqdtNZPdPRPI2fadw6dSmTZsgpCSLSgtbvpJqYQvbNWYiMmlAnS76A0MbakviD7xnfNioE2W/KC4utm2jOhFOE5Z+KfLLZSKla0V2GSLSaOfgwG9o25gafidsUdDvv/++LFmyRI488kgZOnSonZFYHvjd4rx0JdXCFo3JmjVrpH79+mok7xHYJaghqD8gaOGuQ43k/QKbLVYa0c47DSiYKDL+OiNwfS7S+2GRThcGBzZlzpw50qFDhyCkJIvfqWJQ148fP976z1q1apX8/PPP8umnn5a7TZxoKrAGg6xKmVVzBWG1Q9dG9A+dhOIftI1oJZVtzIZ8kXmvGul3qEiHs0XanhAc+D0syackn99ptngxsEFiaIwvEhx2bq6RYywee6V0pSo0W5SR2mz5xbx586Rdu3ZBSEl31GbLT9RmKw2gi1/2tciPx0WX3unziPnbe+Psw1jUZis1/E6zhd0RQ2KNGjWyw2KzZs2ywhb+UmI3XqTFixcHV9ZMKKMGDRqoTYJnaGPiF7xfTZs2DUKKLzRs2FDt7LY16+eL/HKJ+WGEq47nbFbQAh2qTw0VWnTfe++9MmzYsCC0Kf/+97+tD66aDJot7BJ0iMMvpk6dGvxSfADNFjNIFb/A9hfNv7KNKC0S+fV6kXUzRTqcIdL6uM0KWsB6yEryiStsMZTIuK1b888NlYU3XECwMdSoKIqiKEqaMe8VkfmvizTbR6Tz/4nkpK/JT3UnrusHPKJ/8skn9uv/448/tn61cGjq4BK0OaNGjbKe5HfbbbfgSPqRapstvrgRTLFJ0KFEf+D5ZShc8QM++pj1y7CU4g8FBQV2GDE3NzfYo1QZS74QGXma6bDLRAa8JNLioODA5mHWrw7ZJ5+4mi1eDKbF9+rVyxp+4/yR327r3bu37LvvvvLXv/5V+vfvH1xVc4kjryppjs6Q8g99zxSlkqydLjL5TpGiJSI73CTSbL/gQMXoe5Ya4mq2wrtw/YDB3OZmbqWzF/lUa7bQauEigwkF+vXmD/iO23777YOQku5gE4nZQvv27YM9ig8wgYoPdjU3qULKSkR+vU5k5hPRpXh6PyKSXfnynzZtmnTt2jUIKckirmYL4cltaK4QtML7YjdF8Q39elOU1KPv2TZg7osi814WyWshsuM/tkjQAq2z1FDhbMQHHnhA/u///i8I/QY2L0cccUS5MxVrCvjWUtcP/sG6noo/qOsHP1HXD1UIQtLKH0VmPSVSslZkp2dEchoFByuPun5IDRUKW5MnT5Y+ffoEod/AuBiX/qNHjw721EzQ7OGbTDV8fqEOaP1D1x71D4RkbRuriA0rRea+JLJ6vMj2N4g03tV0UFv+zqjiIDVUWBMYEjMTKBZUjWw13b8U95+fn29nJSr+MHfu3OCX4gO0QUuXLg1Cii8ws12XxqoCykw/PP8NkTnPR43h25641W4e1J9daqhQ2MKI+Msvv7RG4GFYPxEjY2YmKoqiKIqyjVj5s8iUv4vUaivS+WKRul3MTtUophNxZyOGmTFjhpx99tnW/QPDhti6LFy4UMaOHSstWrSQ++67L639FaV6NiJf3Gi1WLZHhzn8AZ9N6bymp7IpztEy6+wp/oBWiyF7HbZPIXiJ/25v06hNE+l+i8h2F4hkbf17wtrIOns0+VQoHWy33Xbywgsv2Ebu9ddfl8cff1yGDBkiO++8s/Wz1aRJk+DMmolzthhvqFVJX5jgofgD71esdl1Jf2gbdSmzFPPLpSL5P4s03U2kw9kJCVqAU1Ml+VQobKGtQeB65plnrP+NX3/9VSZMmCB33HGH9Sxf07U5KAbpCCpQECppBloSxS+00/YPtP7qQDhF0OfMfFpk/qtGwKoj0u9fIjkNgoNbj7aNqaFSkhKCxOrVq62BKhoBFhfFwSDDiZX52nTXz5o1yy5y6bYFCxb87kVE7czQpTsHp3ixxues1YgRnztn9uzZ2/SF1hk3/qEOaP1Dh6L8Q9vGFIGgVTDBCFuPmYDpxge9LVIrOS4bMIlRkk+FNlsISayByFqJkyZNsoJOmKOOOkouuuiiIBQfJOVXXnlFXnrpJWvnRaPJuHBhYaHcdddd0q9fP/tCEn755ZfliSeekJ49e1pBjmHKyy+/XPr27WtfXAQvfHv985//tNfQaSJs/e1vf7NLCMWSapsthDyKUN0/+AXPsQpc/sA7hgZZBS6/oL2mbVR71iSzfqHI+OtEFrwp0vVqkZ53mp3J6X/QIKvAlXwqfANYiPrGG2+0hb/TTjvJLrvsssnGGooVgRDSpUsXufLKK62Q9Nxzz8lDDz0k9evXl0ceeURWrlxpz/vhhx/kwQcflCuuuMIOW7LINSCk4V4BmEr85JNP2uUEHn30Uft77733lquvvnqbTOenA0BwVJstv1C7BL9Qmy0/oW3U4d8kU1IgMudFkcUfijTbX6TLlWZn8j706WOV5FOhsPXVV1/JXnvtJbfcckvc7ZBDDgnOLB8EtT333NN6nG/cuLENswQQYYYinV+P999/33qvPfXUU63XYQS0Aw44QH755ZeNnSNOVhl+PPjgg6VNmzbWQzGaNYYbP/30U3tOVYJmi6FPtUvwCzS2ij+g2Vq3bl0QUnyB0YpYMxAlASKmn8kfbYStf4vU2S66yHRucldW0LYxNVQobKG279atmx1ycerg8FaZoTPOcVsYhKxatWrZ5W5oSLG/2mGHHTYOFRA/RviAnRgNLkOZCFjkyYHghvsJfH/Fg+sQ1tyWbAPAypaDkj7ocJR/qGdr/9C2MckULRaZfKfI+kUiHc8VabSz6WCTO0SrbWNqqNBm66OPPtpob5VMmNl4/PHHy8knnyzXXXedHUo8/fTTZeDAgXL77bcHZ4nVal1//fVy8cUXW03YvffeKyNGjJD//Oc/VkhzHHTQQdYX2L//bST+ENhsXXjhhZusq8Zw5h577GGvR3Bj+JEGAYENDRV54S/2ZQxfIKDxAOJjDKEPYQ3hk/MZ2mB6c506daxWbubMmTYN4mUfEwpQozdq1MiG0crRADVv3tzG44ZGuJYwKlziJjxv3jybDwRS8s8xvhSJh7wx4YB8EzfXkE++IskX+WUSAx0U5/K1gkDL+dwH6n2GZl1alAGPAv5V0D6SbzR2+KIibeziuNa5+nBl1LJlS3sd5UKahLmWeyGM9pFzCwoKrLaStIgLiJs6YOKFKyOGlskLZUS62FaRd9KgfjkvnBa/2cd9cF/ExX3iqoT7dvkmHcrRlRH3QTlSxq4+qEfKhfPbt29v80zeSYt8U55cS9yUMWlRRuSZvLr6oO4pd1dGlAH7+bhwaXFP1CVhhuLJF/ti6548Ui6ujKgbwjxnxEk4PMRGXMRLuRA3ZUA9O39HfJhwjDIibvIyZ86cjXVPnZCWe/7Z59KizKgPygXQPHOPPJfEzfnUPeegvaY+0DjzLFD+lBmTX4Ayc88skC/y4LTclCfXUSfQuXNnGxf1w3NE3aMVd3VP3BynLMgn5cLHG5A2+SOvpEFc3AP3ST1xbbjuKUPiohy5f8qIZ5K4eYaoX8qQuMgH+aEMgWOUO2Xu0qJ8CFMmlBH5oPw5j2eatCgzrnXPEeXPc0Y5UaaEKSPywH1zbbjuSYsPU+6Je+Fa8k0+Xd2TV55hriEd7s3lm99sLi2ef+6fMNdyPmHKjbSYoR4uI8qQfLm65z5Ji/ohXeqIunXvB3FSLqSF/0bugc3VJe+Cq3uOu7p2bTZh3kXKnry5uictIEwZ8SyQX9LiL3XLPVHX1CVlxDPo2kbu26VF+fKOEOZafpM+cZNvnm/ul+tdGRF2dR9bRsRH2tQHzx1179Iin9w75wP3yL25d5Fz164pkJypN0qjZS+YF+Y0Wdzyz7K6MCoYUffE5doj8sm15Id4qA9XZpQv98px9xzxl7yRb9orV/6ufMP1wTNNXbr3mnsjLuKm/SDv7jkjXf5SRtwzcXEe9QGUEddSHzyz5IX3gzKjTHnmSYsyot0jP+4ZJR2uCdcH98/1rj4Iu7YR0yP6X9f2cT354D54Fnh2SIv8UR/E4cqEfPFcu/ohX7wL7pnlfNd+UL7caywVCltvv/22vPHGG1boQdihIsJg3B7PML08SI4b4JoePXrIiy++aG+UAj/jjDOsHditt94anB0Vtm644QYrMB155JFyzz33WNuu/8QIWwwrUtjPP/98sCeKM5DHyN9BgbAlAyqKAncCj+IHrH7A6giKH9DY0oDTGSr+QJ3R+dMhKwlAN73yB5FvBos02TXq5qFBz+BgckERgmCiJJcK9Y8jR460kjpfBOPGjbN2UeGNYb3KgqDFVxtCFZL4008/bQUtQNJEWHFfug6kUKRzJEvgL2H3dQ1ItQhrvNTlgeTutmQJWoq/VPCNoSiKkj6smy0y4piofdZ2FxtBq0dwIPlo25gaKhS2brvtNnnvvffK3S644ILgzM1DBaJNQMuEwPTss89uFKCALx/UxVOnTrXCE3CN86GFig8hCW0EmiQ3RACo9lCXoymrahDeUG3yV/GHzQnmSvrBu8+QgeIXfEzHG1JRtoD1i0XG/p9Isfnb9g8i7U40O1OnMNBlzFJDpQzk0TiVt1X2RUI1+Y9//MO+fAwTMpYby+GHH25tIxDiELQYP8WnFj63EMxocPnNWOzQoUOtFoyxXVxJMIzHUGJVo8KWn2iD4he8X2i/Fb+gbaQPUbaSshKR2c+KLBsm0uIgkR3+Yl6G1JqraNuYGiq02cKPFe4WygOXDscdd1wQio8TiB544AE72xADOyekYUx27LHHSq9evawBHumxBiO2W86o8bLLLrNhXlpsNzDaRzPmjApxWIoRPfHEDhGm2qkpNlsMaWJshwGd4gcYavMcKn7Ae4+pQKzNqJLeUGeMWqigvJUsel9k3J9ESteJ7P6ZSIMdgwOpA1MfDNeV5FKhsPXUU09tImwxpMcMFtZHHDBggJ1RiJCzObDuR2PlZqOEBSI0XVQsghMguDDciF0WX7PMFsHyH6EKyC4zDBhedLM+kMS7d+8eV9ipCmFLDeT9g2cawV/xAzWQ9xM1kE+AVWNFxl9jJNahIv1fFGl3CuPpwcHUgSlP2LWSkhwqFLZo5GJPYSonwgte4B9//HGrndocFSRhCQtgsefHaqvixRd7jiPVwhblg/CHPYmqy/0BOz83TVxJf2hzmH4etvNU0h/qjKFENmULKFljpJ77oj61uhmBa/sbk7LIdGVAG4mSQ0kuFRoaoS1y9lluQ7DYddddrTbq3XffDc4sH6fN2twWZnPHIPZ4vHOqCgQsVORqBOoX2P0p/oCWO+zqRfEDNFpqXrGFREqNxDNMZPpDpqEaLNL+dNMRV92EHv2gSQ1bbdWNSwa0Os45WU2F4U4M9SkLxR+cc03FDzBFwCGh4hdoSbDZVbaAgokiE64Xyaojst1FIvW7m51Vp1DAZktJPhUKW19//bU1WI/dMGRnbBe7LUXxjcoMbSuKolQppcUik+8SKZxnBK3zRFodbuSsqh010bYxNVRos3XNNdfITz/9FISiMP7OTC6W1mHR6HT2f5Nqmy2+uJ27fx1K9Ac0sm5ShpL+YLPFchg6lOgX1BmmJzqUWEmw05pws0jz/UT6/lOkbtXPCmS5Gx1KTD4VClvMDHRrCzmwU8IoHgNjXqJtaTNVEVVhII+aHLstNZD3B9YJY3knxQ/4qKEdUls7v2DGOB/jaiBfCRYMERmDk3DTJe/yjkiTwRgoR49VIcwgZX1WJbnEHUZkHUEcj1LoeGxHg4X7Bfd7p512slOw+WJJZ0GrKsAVBrMRndd7xQ/Cyz0p6Q/fhNiJKn5B24igrFQAw4ZT7xYpXibS60EjaO22TQQtcAtOK8klrrBFR8RK/xh/Oy666CL573//G4QUxW8qUOgqiqJUDRHzoT7pDpH8USLtThfpcFqV22mF0bYxNWz1bEQlCsOoODTVIUS/UOeYfoE9ZLwlvpT0BrtI7FmVcigrFpn5pMjCISJ1Oon0fcTs3LajRYxiKclHha0E4SsANbl+DfhFWGurpD+8X+pexT9oG9XEohzQaKHNmvsf0xPnRQ3is7f9BBBtG1NDucIWnn8nTZokv/zyi92YVYKfGxd2G0vw1GRoTBjjZraU4g94kFf8gQ6bWVKKX9CPaOddDkVLRWb9K+pXq/OlIk12FcnY9vqPJUuWBL+UZBJ3NiK+tS6++GI71OJmkbCWHNNBY1X5RxxxhFxwATMo0hNdG1GJh66N6BdotXRtRP/QtRHLgeHDaQ9Gl+NpcZBIr39EhxHTYMKZro2YGuIKW8uWLZORI0cGoc3ToUMH6dGjRxBKP1ItbPHFjXYLmy2WFFH8gJltuOtQ/ID3DA2J2v/4BXWGvZ36IIxhpelfRxwuUquNSO9gWZ5taBQfBldG6ew701fiClvsirO7XNJZyEi1sEVjwuxNnC2q4z5/YLZtp07mS1LxAjRbfASqbzS/oM7QamnnHYK+dWgPkaJlIj1ujS7Jk5k+E6xmz54tHTt2DEJKsogrJeE7CwGqsltNBqEUe60tEU6VbY/akfiH+mvyDzWQj6Fsg8hPJ4qsmSLSZBcjaJ2fVoIWaNuYGnTcK0EQTBlCrOnOXX1DPVr7h2qO/UPNK0JESkXmvCCy+GOR+j1E+j5heuD0a4e0bUwN+hYkCI0JBqBqk+AXLDWl+APvl67X5h+YV+jEoQDcPEx/OCpg9TF/63QIDqQXzZs3D34pyUSFrQRBTY5bDFWV+wW2JIo/8H7FrtGqpD+4xVH/aIY100Wm3mP+ThbpepVIs/2CA+kHi/QryUeFrQTBVosxbhW2/ELX2fML3jPcrCh+QdtY430QlqwRWfCmyJIvRNqeGDWITwN/WuWhbWNqUGErQbDVwpZEbbb8Ql0I+AXvlw5H+QdtY4222WLiVP7PIrOeFKnbVaTLlSK5TYKD6Ym2jalBha0E0bUR/USdY/qFro3oJzV+bcTCuSK/Xi+yfolIpwtFGvbjyyE4mJ60bds2+KUkExW2EgQ1OfY/apfgF9OnTw9+KT6AbWRNXxrMR1j6pcYOS+HmAYN4DOM7nivS5gTT4/JRnt7CFj4IleSjwlYSUB9b/qE2dv6h75l/1Og6WzrUSC7/FGm6R1SrlevHbFptG1ODClsJgj0CanL1JeMXTElX/AGbLV1eyT/wHF8jTSxW/iQy+jyR7PoiHS8Qqd8zOJD+aNuYGlRCSBA6AXVq6h9qBOoXaiDvJzXSqen6xSIT/2L+LhDpdLFIm2PMA+xPGahT09SgwlaCMK0ZP1s1fnqzZyxfvjz4pfgAQxurV68OQoov0DbWKHtWhk1nPG4amG9EWh0h0uVykSy/PuzUz1ZqUGErCagtiX+ocOwfakviH9RZjWof570iMvd507PmivR5LO3dPMRD28bUoMJWgqAmr1evni7X4xm6JIVfMBTVsGHDIKT4AkuZ1YjhXwTKVWNFZj0jUjhPZMCrwXI8/pmXNGvWLPilJBMVthLE2ZKogbxf1K1bN/il+ADvF8bWil9g/1MjPkRLCkTmvSaycoRIt+ujMxA9RdvG1KASQoJgj8AYt/rZ8otZs2YFvxQfwM/WokWLgpDiC/ggLCwsDELVlLJikYVDTKPylEiTXUXanyaS5a/AMnv27OCXkkxU2FIURVGUrWX1BJGp/4jaZ2EQX297hjyCg4oSRYWtBFGbLT9p2bJl8EvxAYYRGzf2wymk8hv4bKrWNluRMpFJt4qsXyjS4WyR5geYh9Vvv2K6LFZqUGErQZhtwxCizkj0C13Z3i94v9avXx+EFF9gObNqN7utZK3IvDeNkHW7yCgjYC35WKRRf5GO5nd2veAkf9G2MTWosJUgCFtFRUU6Ld0zCgoKgl+KDyBsVXvbn2oIAnK1EraW/0/k+4NExpwnMuXvUVcP2Y1Eet4lktfKnOD/8CG+0ZTko8JWElDv8f6hs0f9Q98z/6hWdbZujhGw7hVZ8b1IyWrzpb3efAWUmN+rROa+ZE6oHqMb+p6lBu1xEiQnJ0caNWpUM9f/8pj27dsHvxQfwCZSbUn8o0mTJtVnaayipUbQ+i4IhCgrEsn/KXq8GtC2bdvgl5JMVNhKEDeMqDZbfqFLv/gF75cOb/gHQ7/VZxjR3EdpOUPZaLgQuqoBamKRGlTYShAaEgwKdYkDv1i5cmXwS/EBPmrWrFkThBRfoG2sFj4Ii5ZEnZZG4rXzphvNaymSUz1my+bn5we/lGSiwlYSYIxbx7n9Ql11+Ifa2fkHdeZ927jwfZFR54rMfNI09uYZzIwZFs1rJtLp0moxExG0bUwN2nolCDZb+P9Rmy2/UJstv+D9Upst//DaZqu0WGTiX0TGXiay5FOR1keL7DFUZODr5vdxIvV2ENn+BpFd3hNpvh9f3cGFfqM2W6lBha0EQUW+atUqu5yI4g/z588Pfik+wPu1dGn1MECuSTBc76V/NLzC/3i8yJR7RArniPR/SWTn50Qa7ybS6giRAa+I7DtapPttZt8g05PmBBf6z8KFC4NfSjJRYSsJYK+lBvJ+oWtZ+ofaRfqHV20j+cRh6fy3RUYYgWrZlyIN+4nsP1mk3YkiWbWj2iuGErPyomGErGpmQqJtY2pQYStBsEdgiENttvyidm3TUCrewPtVrZd9qaZgZuGNrV3Br1FHpaPOFCkzAkfXa0V2fV+kXrfghJpBtXHVkWaosJUgGBPWrVtXjQo9A1sSxR/osFlnT/EL2kYErrSmZJ3IgrdFRp8rMu2B6LBgr/tEtr/OSB4tqp3mqiJ0DdLUoMJWgqAmx/+PDnH4xfLly4Nfig/wfmEbqfgF7jrSelgK2yy0Wb9cJpI/RqTrn0R6PyjS9gTzJV0nOKlmsWLFiuCXkkxU2EoQ7BEw3lWbLb/QRY39Q21J/IO2MS3XjcVf1pLPRcZeLjLdCFe1WooMfFWk27UiDXuLZNTckQqcdCvJR4WtBGF4Iy8vT30AeUb9+vWDX4oPYLOldnb+gf1P2plYYAQ/9T6RUWeLLPtKpIP5a905HC2S09CcULPtb7VtTA1VJiGg+eELJ7zFI/Y8wrFao3hxxZ5TVWAcjy2J2mz5RevWrYNfig/wfjVt2jQIKb7QsGFD+zGaFtBHYPj+/UEiE24wv4tF+v5TpNc/ROptX6O1WWFatmwZ/FKSSZUJW6NHj5YzzzxTBg8eLDvssIPstttuwZHfKC4ulvfee8+es/fee9vthhtukHnz5m0UprDdGDlypPzxj3+Uvfbay55zzDHHyOzZs+3xqoY84/9Hhzj8YurUqcEvxQcYjqIdUPxi8eLFdsmebU7xiqgR/MdtRPJHijQ/IDrTcLvzjSSvs+/CTJ8+PfilJJMqE7aYkdK9e3c5//zzZeDAgcHeTUGI+utf/yrHHXecvPHGG3LHHXfIhAkT5LXXXtu4CC3Gew899JA0atRInnrqKXnmmWekXr16ctFFF+niwkql2VaaUEVRqhA0WRjBo8kadZbpiBqIdLxAZMDLIk12EeszS9kEbRtTQ5U9aTvuuKPVUp1zzjlxl92ggt966y07VHDFFVfYYR40XAceeKB8/fXXG71HT5w4UWbMmGEFMuJES8b548ePl++++86eU5Vgq4Utidps+QXCuuIPvF98VCl+UadOnW23lNmGVSLz3xQZ+38ic14Qaba3SO8HzHa/SF7z4CQlFm0bU0OVSQg0lpsTSJgiPGXKFOndu/dG54Vow7p162aPobVCIBs3bpz1A9KrVy97DnANL/RPP/0U7NkUrisoKNi4JXPID8Ndtyn+oDZ2/qHvmH9ss7axeLn5Mr8lqtFaM1mk8+UivYyg1eoo0xlVn6V1UoEqDlJDhhFEqlxneOWVV8rw4cPlhx9+CPaILFiwQM4++2zZb7/95M9//nOwV2TEiBFy00032eHFPffcU/7yl7/YocVXXnllo+Elt9C/f3+rCXv00UftPseHH34ol1xyiRXIHKQzYMAA+6XMtmjRItsgINFjbO8EOxxfEs7Pz7edc/Pmze0wJnZabgFq1v5i49pWrVpttCshXjReHMPeBCN68ouGjrSIm3gQJKFZs2Y2jC8hBEfSwt6B9BE+SYtjuCxghg8aQLe+H3GTH/KJTRt5IY5ly5bZF4dzSaewsNCGiZvf3CfXkbZbD4s8Ex/5Jj98mRIf9UO+MXgFriVvxE1ZUS7OiJlrEWgJo8XkXIaBSYu0iQuIG6eHroyYBUM4XB/sJ++kQVyEXVrkG39Z7HNxc4wyoqzJi0uL+mCfKyOE7q5du9oypkwoX2xLKBdAs0qeybtLi/LkWuLhfPcscB+EqQ/yzX0QJ/VFvskXYdJydc89McWa/W3atLFl4MqItCgDrqWuqQ/Scs8R8bu0CJMn9xwRF/FSLhynDLgH8sl9YPzqyoi4yYsrI+qeeyEv1C3HCLtnmronD25In8W8iZv7jK179wyTD9Km/KlPF5dzdkl9gDPKpYyAc7nO2ftQH9OmTbPX8T6QFu+Sq3vKn/oh3+STbc6cOfZariE/zk8X+aa8yGu8umchXuKiHCkTyoH6oJxJm/KnDKkf8sE+9/5wn8RJuQBpcY88b+SBuDhG+XMezzRpcR+ujKhb4uY5Y59LizIiD5xP3XKP7lkG8s09cS9cS1pcy324Z5gyc2VE3Ybfe9dekRZtGdcR5lryRTj8nFG3rowoQ2e76u6T41zPuaS1ZMkSm2/uiXMoF9KibrkH4nZ1ye9w3bu6pi4pf8KuPsibq3vqI2fll5Iz817JxDarfk/Jb3W5rM7ZSSI5DUxeomVEXbv3mHxQH+SN+3Zp8W5xb67M+E3euS/CPN88o+75Jx/cv6v72Oco3K5S99SnS4v64N6JG0iHe3N1z3NCnt1zRL4Ju/po166djYu0KGvKiLiIm3ioD1dmXMu9Ejf5IF+EXX1QFpxP+bvyDdcHaVGX3Af1QXrERdwubVdmxMN+ysi9a+TJvYuUEde6+qAcOMZ9UKbUB20C1xAv+aEMiZswbRhlTL55vskT5e/qg7B7Pzp06GDz7do+rictziFerict8ks+iIO0gDKi3F39UHe0g5QL+0mLe6AcuUfuNZa0Ebbmzp0r5557rhx66KFy1VVXBXvFaqtuvPFGOwS5zz772L8Y8L3++uu2MBy77rqr7LTTTvLEE08Ee6IgbF1//fXy6aefBnuiBUdhUzAUCoULroCoSIgNkx6/XZFxnIqjwihgHhYXF3GzlRcXYeIJxwXhtMJxcdylvaX5JhxOi7j5nYq0YssoHI6NizCbuzZeWlwXjovf4bTcubAladFxMwS9NWm5uMtLi9/griXMOZtLy8XlwuXluzJx8Tt8fuzx8vKdjLTcb9iStDgXykuL8xAMaJwriotjhDeXVmy+w2klUkaxx8NxlRcOX7u5tLYm3+WlVZl8b2laLi5wadF50XHRKW8urXA+46UVvjac1iZxRUolc9ItkjH7WfMgrZYMXDn0uk/K8tpIWST6TsbLdzjtcFoc45zy8s1xKC+8pWmBuzY2rXBcwPn8DscVm1Z5ZRabVmx45syZ0rlz541xsW0uLTZ37ZamFS+u2LTKK//YcLy0YuMqLy1+b22+waXlfhNfLGkjbCFxMlsRoQktluObb76x2qx7773XGtb//e9/lx9//FFefPFFK5kCt9CjRw85/PDD5f7777f7HAhbaMbGjBkT7EkuVA5fM0jGrkKU9IevH4RuxQ9o2Piw4ctZ8Qe+9tHY8PWfMspKRNZMEvn1BtORfGJ6uzyRvuaju90p5vc2shfzGDRBrm9VkkfaSAeoG9EOYbflQIhiiAMpkq8jpEWGfngYwq4e+OJlX5cuXYI9irJ54n15KIqSXFL6nqEn2JAvMu9VkR+OE1nxnelIdhfZ23zEdzhdBa2tRNvG1JA2whZfPthrYY81duxYK2gx7ov2CyGKMVHo16+f/cpF48UYMmO777zzjhXG9t9/f3tOVcJYMloS/ir+4OyUFD9Ag+zsJRR/wA6INjolYJM1+e8iYy8zASN4db066gm+fs/ocWWrcHZ8SnLJutUQ/E4pNJQfffSRtZ1iCBFBiuG3X3/91aosMWzEkBJbmiFDhlijt48//tgauZ5xxhl2mBANF8MIqKa/+OILmTVrljWg53xcShxyyCG/k8pxXvnll19aP1ypgE6AxgQbMPKn+AHPIwaRih/wgYUxKh9Vij9QZ9iyYmaRNEqN8DbvJZFJt4ss/kCk6WCR7W8Uaf9HkdzGqGaCE5WtAYN1+mMluVSZzRYViL8sZiM5wzKEEwStPfbYww4PAgKU01ox1o8RM4bvGFgC1xHX999/byVwwsxYwB9XPHsOtdlS4qE2W36hNlt+knSbrdUTRWb/Kzp0WLxMpPutIq2PE6mvy+0kC7XZSg1VJmzRWDLFkr9h0ETFvowILwzLIbxwLFaIIcvEw3nAOeVplVItbJEHpoC66cyKHzC9npltih/QHjANm+n2ij9QZ7g9QPOfEBHTbyz5XGTSbSKrRovU2U6k72MijXcRyTIf4qrNShooMXC3oSSXKlPFIDDxwvFlGt54EWOFFIQn9qN+jqctQkBDuCK+bT18V54QqaQ3zj+N4gd8YKHZUvwCEws3nX6rKVknMu0BkZ9PNtLbCJGO54rs8ZVIs/1EsuupoJVktG1MDTrulQR09oZ/qH2df+gwvX9QZ1vdPuLSoXCByIgjRSbcaASrBiJ9Hxfpda9IrVYqZKUIbRtTg7ZeCYIWDqNdHUL0CyZjKP5AB6BGu/7BLHJGKLYYhKwF/xUZ1l9kxXCRVkbgGvCqyHYXmIdB7fZSiQ4hpgYVthIEFTlGoDqM6BduuQjFD3i/3DJBij8w0WmL3OKgzcofJTLxLyJjjGDFMGGXK6Iaraa7iRrBpx633JCSXFTYShA6AewSVNjyC21Q/AKbLbc2m+IP2NlVWtjaYD6A5r4sMtYIV3NfFGlxsEjvh0R63BYdNhQdNqwKtG1MDSpsJQj2CAwhqt2WX2zV0IayTWHIXvEL2sZK2doV54uMv1pk4k0ia6eJdPuzyI73iLQ8zPRSSfTRpVSIto2pQYWtBFGbLT9h5XrFH3i/1O2Df7gF+jfL0q9Fvt1LZM6LIrVai+z8nMj214nU6aRG8NsAtWdNDSpsJQhuH3Cy6nx+KX6A81zFHxiKWrRoURBSfIGVQOK67MC9Y1mpyPjrRYYfLLJmokhL83fX983fQ9WlwzaEVVuU5KPCVhKoIr+wShJJ2PePUuWoXaR/0Db+rn0sLYyua/jjcSLTHxTJayXS70mRQW8FtlnKtkTbxtSgwlaCYKvFUj1qs+UXuuyLX/B+qS2Jf9A2bvTbhNBVvFxk9vMiI08XWfG9SPP9RHZ9T6TjOaY3Upu8dEDbxtSgwlaC0JDoItT+oQsa+wVG1m59VMUTipZJww1jJXfNz1Ft1sofosvtTLghOkTY9dqofVaD3uZk/VhNF3RdxNSgwlaCYEuC/x9VvfrF8uXmC1vxBt4vnZLuCfjKWvatyLjLJWP8FZIx9nKRXy4RGft/IrOfFWk6WKTXAyKdL40OIeqoQFqBDbKSfFTYSgJ0BGq35RdMbFD8YoucYyrbjqLFUcFq3huSWTBWMlaPFpnzgsiqMSLb3yjS51GRFgeKZOsC0umITvZKDSpsJQjDh4xx6zCiXzAlXfEHhhHr1asXhJS0Zv7rIqvHmh9hbX/wMZpVK3DpoO1lusISS0ryUWErQZywpYvk+oWus+cXvF9qZ5emRMqiNlkbVoss/kRk6n3sjB4LEzHC1/LvVZuV5jRp0iT4pSQTlRAShOEofMmo6tUvpk2bFvxSfIAhxPnz5wchZZuD2cSGApGCSSJLPhf55VKRoT1Fhh9qjtEWxhGo0GY1HhAElHRlxowZwS8lmaiwpSiKolSOMiNIYXu1cIj5YrlX5KeTRH44VmTxRyL1thdpd6pI91tF6hvBK5b6vUTanxkEFKVmkRGp5pbdH374odx0000yZoxpIFIAX9x4SK5du7babXkE2shmzZoFISXdYRLKmjVrdChxW8Aw4bo5Iiv+F9VkLf9aZPV4I3itF2k4QKTRzmbrJ9JksEid7aLnL/lUZM7zUeelGeabvukeRtA6Q6T5/tGwkrYwU1vNLJKPClsJosKWnyxdulTX2vMIhK2CggI13q1KcOGw6H3zZfKVEa5+jQpaxYujBu5tTxSpv6NIg17RsJ1ZGBKi0IAVzpOCxWMlr1ZtyW3SWySvpQpaHqAfoqlBn/wEoRNYt26d/av4Q35+fvBL8QGW6kGzpVQBaKN+uUzk2z2itliznhZZNVqk5SEiA98U2fUDkW5/NgLXSSIN+4jk1P+9EIU3+LqdZF3dXWVDw8HRBaZV0PKCVatWBb+UZKJPv1Ij0XX2/EN92aWQomUiU+8X+bKvEbL2Fpn5hMjKH6NOR3d+QWS/8SL9zL7WR0dts3IamN6jYk2+1pl/aNuYGlTYSpCcnBw7tJGdnR3sUXygXbt2wS/FBxii12HfJIELBtw0rF8osuhjke/2E/m8i8iEG82++UbAai3S8y6RA6aK7PuzeVlOEqndxvQWuVHt1Ba4bsCfHcuZKf7Qtm3b4JeSTFTYShC+ArDb0i84vygqKgp+KT7A+6Ve/xOA9gkBa9VYI2B9JDLuKpGvdxUZcZjI2mlR+6vtzhMZ9JbIfqNFul0nUs8IYAkO/dE2qqbEL7RtTA0qbCWImyWlNlt+gYG84g902GpLshWUmXYp3whP814VmXq3yKgzRX4+WWTxh0bA6iHS0QhYrFO4ixGy+jwi0mxvkex6W6S92hxMalAh2S8wkFeSjwpbSSBDPSJ7h3r89w99zyoJWqx1s6PrEU64XoSFoMdeJjL9ISNINRDpbH73ut8IV4+J9H1cpO0JgQF78mdTU2dab36hbWNqUNcPCeKGEbHZ0ofUH5hByjJLih/wnqEhUfufzYCrBjRWiz8WKfhVZM00keJlRpBqK9LhdJGG/aLarNrtRbJiXDWkCIakaBvVLY4/aNuYGlQ6SBAELR5OtUvwCxz3Kf7A+7V69eogpGxC/i8iYy4WGTZAZPS5IrOfi9pmtThEZJchInsOE+l2vUjrY4yw1VMkO46rhhSxdu1aXcrMM1auXBn8UpKJClsJ4gx3VdjyCwRkxR94z9Rw18BABLMJcdUw/WGRoX1Evh4oMuupqDaLmYS4ajhwmkh/I3S1OiLq1d06Ha167RJto9qz+oW2jalBha0kwPCh2iX4BS47FL+osUNRCFfFK0TWTo8OEX5/mMgX24v8+meRDcujfq963BH1hbXfGJH2pxihCzcZ275Nos60bfQLbRtTg9psJQhfbQwl8oCqzZY/MIO0Xr16QUhJd9Aco9liWaxqA0IUawyuXxDVWOU1iy5/kxncY8ka86BOEVk3KypkLRsa/Y2miiVyGvSJOhltNCCpMwiTCXWGwKV+CP2Bod+6desGISVZqLCVIKjJUbvScWuD4g/z5s1Tx6YewQcNtiTVyrHp3JdFZv4zKnCxeHPdziIdzowu2sy+1RONgPWlEbgmRw3amwwyQpY5p9leIo13E6nFWoPpre1bsWKFNbbWiQ3+MH/+fHVsmgJUFZMgyKpqs+UffL0p/sB7xoLv1Ybi/Ogw4IrvjSS5WqR0jRGuxopMvjO6LuH4a40g9njU1qrLVSJ9HxPp/ZBIr3tF2hwf9eie5oIWqM2Wf6jNVmpQYStBsEfQIUT/0KnNfsF7lpeXF4Q8By3WtH9El8aJZcNKI3SNEel0qcigN0V2elZk++uiAlbdLqbF9qsMcnNz1e2DZ2jbmBp0GDFBKD42OgM1BPUHvra1E/AH955591FD87p6nMiyr6ILO2NzVThPpGixSFk5sysb9BbZ25zr1iL0GDT+2jb6hbaNqUHVMQmCmhyfTepLxi9mzJgR/FJ8AJutBQsWBKE0ACEKJ6Kl66OG7BtWiaxfIrL0a5GJfxX5/hCRz3cQeb+uyFd9o8OCC4dEhwo5N7eZiaQcAaSbOTerlveCFrAslg5L+cWsWeaDQEk6KmwlgWquHKyWqI2df2yz94x0S9ZGZw0WTI46DF35Q3S9wfHXGMHqYCNQ9RP5bDvze38jyT9izptkhKUskfpG4Gq6t0iXK6L+r/b8TuSAKSIHzzH79zQtcMhwPCPHnN9LpOWRwQ7/0bbRP7RtTA06jJggaLT4cmOqrM5G9Ae0JG3atAlCSrqDZis/P1+aNUMjlEJoDjfkRwWroiVR43U0V2tnGgFqfFSIKl5qtuXRc/FnVcs8R7lNRLLqmb9NjcDUPerCoXaH6PGcRvG1VEUmnqn3mjgnROOq0zG6biFe3qvJsBt1xkxEnY3oDwsXLpTWrVsHISVZqLCVIHQCDCVivKvj3P5AJ9CokekEFS/AjqSwsDC5vtGcJ/a108Qu3Mw6ggha2FStm2G2uSa8IjrsJwhDnaNG6swEzGlsBCsjSCEg4bIhr2VUqNpST+1lG6J5EJMXBDWGD9PAGWmy4EOUCUTqKNMfVq1aJQ0bNgxCSrJQYStBcNpXUFBgH05tUPxh+vTp0qWL6TgVL0CDjP3PVmsjmQGIEIWxOsvaoLWy22KR9WZD0CopMDIPLkGMsNSgZ9RQHeeheS2CrVVUqMo1ghZ+r6qJXVUqWbJkiRWQdYabP8ycOVM6dTLPvZJUVNhKEIQtvgTQkjDNWfGDyZMnyw477BCElLRm3Rwpm/hXKV45UWrVMwJP+9NFWh1mhJ1yvMnTpK2dIbJyhNl+NkLW3OiwIEvbMCTIVlYc3bKNEFC/j0iT3aLDf7XbitRqbfY3MFv9aBp2VqD5kNIZdVvMokWLpH79+uqR3COmTp0q3bp1C0JKslBhK0F0GNFPmEHatGnTIKSkLUbQki/7SAStk5RJBkNsmUbw6feMSLuTTQuWLdbD+tKhUQeha6aaa2aZF3N1VJvFUCFDgGwIT413EWm2v0ijfmKXvWHhZquhMu+uFaaCTQWrpMCyWLSNqvX3B1ZqaNy4cRBSkoUKWwnCzA0ELozj1bGpP2D/U63W2fMdmiEEo8gGs5WYF8tshIcfLpL/Y3BSCIbxarWKDgOiqcLZJzP70EJlGgGM9QXRVjXZQ6Rh76ixOsvbcFypMvgQ5SNUP0T9QdvG1KDCVoLoMKKf6DBiFYF2CeedpYXBts5s66NCFcbhCFb2d3HUdorhvvULoxuCFI5Ay8x18cBNQg7DfWbDvqrRziJ1u0VnB9ZqYVo37eC3NTqM6B86jJgaVNhKEBW2/KRaClsINgUTo5oeNDm1Uzh9m2aDoT2G6zbgHmFVNIwgVWa2UiNgOSGLJWgwQGfWHX9xm4AhOoJXCcKX2axAlREd6stpGNhMmb8sXcPxeAweGhWycpqIZKpglY6osJX+RAoLpGzhFPOBY9oNw/z5C6Rt22AiSu0Gktm6m2TUSuIs4CqkdMYoKZs7PghtSlbXXSSzbdX1ASpsJYjabPlJtbNLKFwgMvtZkWXDzENpGk1cFLQ7SaTFgaZV2YKZYGiaEJ4QiNgQkHB/QJwbNVPB5oQs+zff/DXCFkKTFbQQuvhbbCLNjLpFwGt6XtOoiwMEJPKFgTp/2TLNlhsIWVbgMtuc56MLMlu7qxA4CmXtQPxYKWkLC77zEVodbLYiBculdPyXQWhTMhq2lKyeewUhvyhdMEU2vPcPI3BNs+ENG4pNfUUVB5nte0ruEX+SzFZ+ztwuHnK3bPj8qSC0Kbkn3S45e58ehFKPClsJgrDlxrjVqak/MCW9RYsWQchzEGrGXWkEk/9EhSCLEXAQuPo+YQSu/aOaKLRKdnhu0W/DdPiQQpCyW+D6wGmbNm5GgIowe8/ZU/HXbKRhnXq2Nn9xixC4RrBDe+ZL2G7M6Ktr/oaEKitYMcvPdMBszPSzf837E2uYvt7kdeItRpB8JthhaLyrSM+/G4FrD3Odn+/chu9elcialUFoU7L3+qORO42g6SlFL/1ZIvnm2YolO0dyT75DMhuZ58RDSmePlaInzgtCm5LZdZDUOu+xIOQXpXPGSfFL10vZvAnBnt/I7LST5J36N8ls2yPYk75E8HyPnSd/y6J/iz94QEq++ndwxqaosJVkdBhR+R3r5srSsU9J81adRdocb946jzo2GpHw0B3CUv5IkWkPGMFkbnBSiLpdTSdnhB+use4OAkEpbIQuQSPFMCS/EXoQmmq3F6mDYTlDkm1MOTX5TeNkHXgaQcoapDtBCaGJv0wUYXaf+Wt/83crZveZpqn4039KZPlUYZZh2eqJklnLCHfYatVqJblHXiMZdf3UThb+/UgpWzw9CG1K7Zs/lcxmpuw9Zd2t+0pkSZz19bLzzL19JJktzHvnIQxJrb/PtBdxyOy+h9S+/MUglBiRDQy/834iMLCVmFeT9zMimY2jpgGRdaukbBUfS+ZdDp3H34ymbSWzafT5KZ3+s5QVmI+scHyl0XNzdj/RZDxLSmf9IkUvXiuRheY9iyEsbJWM/lhKp4wI0jFig53tyxaRnEMuMfXayear+KvnJbJomjnnt+P8zTB5zz3yasmo00BKfv1aSoa/LrJ2tTkcE9e+Z0tWnwNMk5IjxZ88JqWjPzU5iZjD5jgabv5m5Rjh9lGbJkJw8YcPmfyjmQvEGeLkj8mPGx6NRYWtCiC7bCwk/N5779kp/IceeqjsvvvucWcDplTYMvmIClv50qhxY8lF9erxlPHoo2A2/uIAcsEQ82IWiHS8wHS+zey9ZXjqxDGyfq2U/PSulI77QGTFcHNfOK805DaXjNb7Sfbg0yWr26DovW9CRWEI9sU9ZBo2BCPsluyWL1Js/jLsVox3cobf2G8aBbRI1t6JobjgbzjMEB1arBiKJjSVknn1g9Cm5PVeJtmtzXX2sTQCUO12UUeddc2GR3Q8oFO3eES3XtHNhnCGALWtMY3vujsPidsJQO07vjWdirmfJBKvOcwI3unNNZX2DHPeb+fEO9c6rrDnrbv9wGiHFIfat39thK0O0bhsfPHjir6PQZp0VPHY5H118cXBnLdJXPHOs8JzKE067hDRa0tl/R2mzpbNDvaGMB1k3oVPmU63lWTk1pGMRuZvTp6R+0ukdNoP0fisUGCEi0AgyGy9vWQFdjWl8yaa85gwYc4p4XggaNRuINk995bMllFHnMXv3idldLKcR3yBoJHZYUfJ2f88cxtGwJg3wXTQD5t4zAeIu2dzDvnJGnC05Aw62sZV9OZtUjrT9B0cN512ZHE5C9ib66RBCxMHZRdspryzeuwptc64z55S/P4DsuGbl827bt5ldw5p59WRvDPvl+ze+9vz1v1lb1N+c+zvTahVX+o+MNb+3DD8v1L81t/Myab9iCHn8Csl97DLbV0VPnyqlE027d1Gos8y1Hl4or1fhMiiF66WyNLfC8hhYavorTulZNgL0XuModZVr0lW14FGAFwiRf++UsqmmvqMIaN1N6llBNLMBs1lw/dvmnq6V2SNaQNjyD3hFsne4xSbt6JXb5aS/71q9v6Wb0t2rtS69m3zbHQ3AuVIKX7zVikzz8fvcGUcBxW2KoBlO4YNGyZ33nmntbnB8HLixIly4IEHyl//+tffrcGVCmELCds2lKZhKcsfI6VLv5esht2MlH2g/XrLbOnnl1vENDylYz6Rku/MFxrrtTHsBFmmIWmxj2QPOE6yBx0T3ZcKggYq+nK4l8T9jbdvc8fMtvGYEdDXrTaN61NS8sOHJhxD7XqSd9RFkr3zvuZyGnzzJYT9kTX6DrRIVpPEZvZxDCHUCkRG+IkEf8OG4XZDQMJmKcDOjkPj47Q+7ndo26gFquAvWiSrYaovRT8skZIpQV3FkLv/AMne59qoYJXbwCRhPghMudgvZTojiseWVfAXTEOWkZUdPc9+FYaO2zKNklG3UfSckiIrzP5W3vyJ/s3IrS0ZtevbcNnqpSZNk+7G+CA4r1FrUySZ9qs+wnlBWusfOzO+lsRQ66pXJaNheEgqFBeduHmeIktNp2WfK0eQcGa2ZDY3gqYpS2xx7JAe55M/zrflg5agvWTWb2rPK505WiJrTedm9kfL77ctZ8CRJs4sKVuxQMqMQBAxnaD9Eg86es7P6thHsroPtp19ZYStstXLTEfzmpSZL3eXDvdEuWR26GU7VMq3ZOoI2fDJP40wwAdE8PybjXPzTviLZHbpb57bDTauDd+8FL0/e4+cZ/42ammHwDIbtpSyxTOl6LWbpWzBlOC8aFz8zjngPKt1wFi6ZNJ3UvT4ub+ds/G9qwieXVNUPfcxebvZtpWRwjWy7rqdgmM84xA9L+eQyyT30Mvsng1fvyTF79xtf288z/ylrHKOvs4IXFGbqXW3HWDqM+jE7XnRuLK67yl5Z/zDPtsIbUXP/ylaP+E0jeCTs9fp5j7PtHs4xwp4YNrH6LMZh5xa5lkMmyVE08zcfjep9ce/2z3Fn9H+vG3SZAg+wKRNHeYed6Nk7bC73bX+sTPMc7TQ/o5CXGYz5V7n2rfsnpLxw6TkmxclUmQ+0JgcEtpyBh4t2f0Pt9cUf/qEec6MgIg9McoI6xbF/DbhvKP/bN71HCmdNUaKXryuQs0WGqQyhE3y7OKxcZl3yZyXadoD+hBrbL/OtI+BcB79a7a82pLZqqvVWJWtXSmR/CX2+bEfM+TNCfP1m0XbDBMu470sNvfojrm4zIaGjLTR1NEGmcjIsfnfnGfbyUwpfu8fsuGLp+29xKLCVgVg2HzFFVdI8+bN5cYbb7QC1wcffCCXXXaZPPvss1boCpMSYcs0auv+1CsIbUqGkdrr3B3HL1Cy2aSBMxuNnn3YwvuCsPu98Zz4vyPF602D9rppuEP2MY7cPNMIHWs675PNqabhtxvXh+LfmLbb58LhY8H+ePsiG8wfvlaLzYNpfpcaQcVuDHsFf91QmPBymfNMOML+Yo79dtxea/KYkbPBvKDmS7moRIrHrpOSmVwbQ47plHoUSHbrtTausrXmBbaYRgAi0b8Z9epKZr0GJrc5pjM15+Yj4ASNiRs2yzENSrOOpiEwDY+5t7J5k20jbVo1839dcxobX/XmnLZ9TbmaRsXkrXSBESjssdomHobjjFBkhNzMFgjxXU0Wsk1cU0xnTyPGsJ1JD0waG759ScomfBMNx5C9+wmS2XmAOc9c0rC5ZPfaz/wuMx3IT9ZWQ0op90BooA5M45nVa1/JatfT7isack9wjHPcueYvjfXJd5pwxAh6w6Xk21c2Ht9oO2GOZfc5SHL2PMX+Xv/MpRIxX778jtY3f8lYhv3ipYEtnTtBil/4k9kdPcd+4dvy+z0YJUfL3pzn4jLX1Lr4GSPY9LWzrNbdYdqDosLoMfe8mQ3tSp2/fGHvl6GKDZ88EW3UY8g99S7JGXySTWfdP46XyKzRNr+2Ueev/Z0hde8z7UtuLSOE/E+K377L5Hvub8fJo/mbY77Wcw67wnY2lRK2Vi4y+XpUSqf8sGlcJr0sI0DRQWcY4aBkihG20NLY/HMOsUTP55zMzjubei6Rkh+HSMnw/3IwOB79S5uVe+JfrcYBYXHDx49K2UbNym/nZQ88ynyQHGHSrG01Qxveudfs5uBv50CpeR6k2JR5LCbvmUYgymCGm3m+sgcdK5mNWtgOuvjN2+xx23nzbFvBwDyLOww2QtSe9nKGu0onfrvxGOchoEudhpLVdZAps+jQWcnP79s4ox04cXGu6ZyNUJnVqZ/JshHqTWdfNnei2W8uCI7bzTzXaNycXVmZEfQjRXxwmI5/wSTzbF5t98eS2bm/5J35gImDsnCbic8IYZn1okPdkSIjDDNEaMsrdA5/EdYQHDjPPu8IFsE54fNTQHWx2YqHGsgnAFqss846S6699lo54YQT7D6G8vbcc08ZPHiwPPjgg3afo6qFLalrvj4uM19MQQdNA5+REW3g6X+iX5PmL2Fb9KbhZ8uNahmibofMtcE54Y1zMnKIxHTia7LsubbTsp1bsIn5gm5E52I6PfPOlhWY82y6oXPMllGrSLLqreeA+YI2X+Rric90+jPnSOnUmWZ/DOZrIaudadQ6NjPX87VORul4jUCTu0Gym/FVXWriyZTSlUZQKCEvZtuYrslX87U2XcJlK8wX1SrTuITyZP4x6ZgOuu0a+wFWVmTOWZpnOk3TGALFQMNj/ma1zJOsVnVtx1Wab77ap6CZ4KTocVu05ndu/x0ks3EjI4NFpHjkQiNkmPNiMbJL3u49JLt7Z5P/9VL0QaD9snUY1KP5nT34CMnpf7CJO0dKxn4jG7582RwIGnRrs5RtOvF2knP4VZJtvmgjhetk/dOXBcbCQZ0GHX5W7/1NR3iT/ZJG5b7+X5dwMMg4N2DOy86VnAMukNwDL7CCcNFzl5vOxghVwfOw8VzKOBr5ZuEru/aVCEVG8HzXfPExJOA6GduYm78mP3TQVlNTskHW3rKH3b/xi9I8BzacW0dq3/SRzUPJmE+jQzJ8UbrziM90YtkDjpKcfc+y561/9v+iGgeXFvEEHWfe2Q+bZ6OulC2aHh1esB1LhpRO+q5cm4usPkaQMtdwnu2YKGPzN+eQS63WKmI6/OJ3jLBI52XT/O0ctHK5R1xlfmdKienASyeadBDaQ+cRZ9ZOh0rWdv3svg1GoIysXGCv+e1LPLpRR3xll62YHxU2Ck2eNznPfGu32SEal9lXqWFEU+doEhAMiMOWVZBeRt2G1l6FsrNT942QZJ8Hm3VXHua8Jq1tXZnWRmTd6qgNiz32232S74z6TW1nH0HTU2jOQ8B25wTnZRhh0goFJmzPYzgsfE5wXuGd5h1ZGmcYUW220pIyU1e0BfYDwbB27Rqpa/oxyGjV2Wr6kj1cX1WU/Dos7pAm0H5k8SFSRXgnbH3yySfyt7/9Te677z7ZZZddgr0i5513nixbtkzeeeedYE8UhK0//elP8uc//znYIzJw4EBp166dNWjHZQMLSdOAMKOQ4li/fr39y+Kp/GW2IfZgDFmyin2paUhzbxscxBaD6Xez2jNUYxqn7FLJaV8gmXVNY2/iKfq1iZFTTINkS9z8w1+zP6P2BsnbYbndV7K0tpTMNx2IOW9j1fA3o8zEtVqyW0Rtjdb/2lQiBSYdCKKCjKwyqT1oiUneCD2r8mTD1PqmMUaoCU4IyGxTZr4aTSdtBIXItCwpmR2NxOavNBBuNsEcNIKQZAURBX8g0qS+bNinlymjbMldaBrqnycbgRShKjghILLv7lK7+w6yumCtZI0aJ1njJwVHfiOSa/J84qmSUa+B5K429fLVZ1K2cH5w1BwPOq7IgL2l1j5HyrpS83vGZMn8+CXzUWo6O3OOXdTFdEJZGFgedYlktN1eckxHmvXVS1L648fRiMLUQsC4Top6HyobViyR0tdukdp16kpJaZlsMAIokl/tOrXt8Yxe+0u2yULu7NFS8M1rUmqE55y8WvbZWb3GCJP1mkidwcdLlulYi1avlOIv/iV1M4gjU9Zw3PytbZ6rkuamw+lzsB3uql+0Ugq+elGKN5SYvjPLyOv17LkRcz95O+wmdXbcQ9atKZDi0R9LXsFSyatdS1absqEc8mrVlpyJX0qZ6QjikbXbibKueTc7/J7VuJU03OUIKTTPcNHMMZK1fLZ5xuuZ+oiq/HOYom/iK2pq8ta4tdQx6WRM/s4eR4girTLzLJJPOuYmAw+270rhknkixGUa6PWF66XUnBO9j/pSmGWEyQYtou/aqgWyemVU2Mox9ZyVk22uN8+JibvBdj1N3WbImvwVdqimlinPUsr+XxdI5vI49iuG4otflEjDVqbes2yZ8m7yqtRq3NxUaV3JzzdCivkwys3Nsc8DH2UmMWnYqKG9h8IS8+7x3uflyoai9dG6NuEGDRqYuApN/Zv3NyfXxs2yM6wWwYxj2oxoWtE2gn2rV6+2eeIYcZIWx1mgnt+Uk82nuS+bj38cJRlL43zUGDZc/b55p9raeCk32h/iYkFn/uJOgTQwmSBP0fsSmxbn4oqGa0mLcIm5L9ov8kq+uYZjuGNw+eY3m0sL31hc59o+0iJM3BAto3V2H9cRH/niOct+4Ji4dRYxHw+ll78hOW262ThdO0tc3AObKyPSCafl4nZtNmHuw53v7ssteE3YlRGE0+KeWNjclRHHCHM+9+3qmms5h7S4NnvVIsn4+rlN6p7zbN227ib1D7vEhrkPl1a4jIjP1Ue8tLgXzgfuk7CrD+qePIbLyIWBuiefxM217rmx9RHcpyszfpO+K6M8GrQ1K833gRHEDTwTLGVG/Fl5taVOs7ZSRFtowkBa5NvVBxtxETf36eontozcc+TCEFsfHOcY98H5roxIi3g5x5UJ6RJ29UH/zHnhtAi7MmISG/kiLfLJ9RwjLeIhr+H6IA7SAtIm7OqHfPF8uvrgOPEA5cu5sXgnbL3++uvy9NNPyyOPPCI77rhjsFfkhhtukB9++EG+/HJTPygIW1dddZVcckmgOTDstddedlVzCptCQtgCConicA9C7INCZdoHFmHrdvPFXxHm+pzDDpXMdu1tY7/+ySfNV6OpPPN742Y6mozmLSTv1DNM2qah/fVXKfv5J8kwD4lJ1Bw3ghJ/TeeUsfMgkW49TNDsG/aFlC1bGj1m4iF+fkfMy5F12AkmnCnFixdJ5qRxksH9IKS488zDUdqqnZR23kEy6WQXzZfIAiPQmK/ZslljpGzy98ENhMgyHVa3XSSr5962Q7JPjflLp1pap6Gs79DTplm7yJTPvKkS2VBsDhuBxzzUpaYM6aQj7XtI7ZYdrKCQuXy+5BrBITPbCHrmRSY+zs0ywsfaFttHv4IzsbmZJRtoBEw+7YtqTizmpTcdeO1W28k601mXmS/27JXzbAddZF6AUhMfL0AtIxwU1MLo2whTJYWS/dmj1m7ld5j85/7hFina8WDzsW7qxzSq9YygsKGExszch7mvOqbzXldmBNO8OtHGLts0Vghmpp4QHHhWVtFxmXNr1W9ihKhcI3iYRqGwQOrVNR2AKSteZP4SV7HJY6nVhpnOv349Wbdqhb2vTFM/PGecSxHnmPqsZYQYXvLS4iKpZQQDyiF/1SpESit4Zb379/j3Zcg9834p7L6/zSf3QSNBXOEGprwOl/eBd4TZtmDL39Sl6wRpvHg32Gi03ccI52zyvpgw8RCfi4t0KEf3rpEv0rRlZLANpclj5P5jJXNJ/Fl7xdd8YITCNjYt7sM18Fxryyg/ajxM2pzj0iLfNJLcJ/kmX9yTayxjO0mO00YQd/S5qmXTAtKlHF0ZkhZxhjtB0iXs8kk458f/SmZhtCxiWbfzcRKpXd/GS3zhBp6ydGmTD/IUTotzbSdp8klahG3dB/UTLiPiDtc96bnOhbS4/3AZEXZ1HxaAXBm5jip70RTJM81MkblPnmFb/iaO9ebaslbbS27dBrYswmlxD8Ttyoiw69w5TlruOaLNtu9HUB+k7e6La8GVGfcJru7DnbsrI8Ku7sNpkQ735uLOyTQfCaXrZR1h819d8x7Ttq03bUYm7VWTFrY8wvXBtcRN2ZIX0nL1gQDl0uIY+SEMpE3Y3UdY2KKMuGfCrj7CAhB55nquJW53n67MuBZc3boycvVBGXOeKyOOk46rD9LifXD1wbaxjIK0XZi0+Ev5u7RcGGLrg+PcI2XG+dSHe66Il3LkvojDhV2Z8XxzHde7ZzZcH7z3xOXqg+vJB+eQNte795x8UM7h5ygcjn1mOc49uHTZF4t3wtabb74pTzzxhBW2evX6bSgPzdXIkSPliy++CPZEccOII0aMCPaYftwUNIVBwYArgkqHzddy4dW97e/fUa+J1L7mDSM55JktWzLq1DcJ5kSPrTMdCVFFowkwASrGDocYTAe/cYZMkF4U85vZjkbosTD2b1X9hvB5/DbCBTAUkMHQiKvi8HmmU48Yoc3eE/GwbTBfeF89Lxs+fCg4KYSJ0xrIHnKpCYTiAROH1Tjxk3/skGAcOIdzbX7sgGAMZo/5/7fsRs/YXH3EHgP2xZ4rpmPDxqR8Yesv1oYkGWklI7wl5xYzY+e7V2w4lryzHpCsgcfEvb4ycUMywlt3bURKRn1k3ptVtkFEUGvSpIk9DlkDjjI3WHcr465cOJlxgQtH7RCj+2KJBO94ImltTMcQPr41ccHmwu43hI/zm9niCAquk3XHYEvigvDxysQFmwu737C545WJCzYXdr8hfHxr4oLNhd1vCIcrG9e8efOkffv2ceOC8PlbGvfmwu43bO54ZeKCzYXdbwiHtyYuCMcHsWHwTtj66quv5JZbbpG7775b9tgjql3iFk477TQrZSKMham2BvIpwBrID3tBNnz0cLAnBLN09jtHcg/+TUPoE3aWzPzJElketUtYsGCBtGkTLElhOjcMdjObto2GlbSDr0aWfqETUPyBOkMLgNZA8QNdGzE1/F7XleYw/IdKcdq0afYvoPobNWrUJsOKKSUzUzK367dxy+jY97dwh3IM530gO0eydzpE8s5/4vfbWQ9J9s6HBSf6R0Z2rmR17G3vga2s1wEbf2f3PVAFLQ9giELxCzeKoPgDw2tK8vFOs4Vgdccdd8jixYvloosusmO+DB0+88wz8sILL8jOO286uyAVmq0wDG/w1W3tErRR8QaeI764FT/gwwr7CmeTo/gBdYbAxab4AXZNDP0qycU76QB19Omnn26N9B5++GG56667ZPjw4XLNNddIv379grOqDoQtjOb4q/jDihW/91yspC8IWwjIil9gvOwMqxU/wJelkny8E7bQHvXo0cP62UKzdcYZZ1jnpqeeeuo20SyhGGR2g2cKwhqPmw2j+AHvl5t5pfgDgpYz91D8QNvG1ODluBcqaQxl99lnHzn44IOlT58+28yeAwGPMW4dQvQLHUL0C2b3uCnrij8wC5Fp9Yo/6BBialAJIUEQ/LAb0wbFL1q3jq6er/gB7xeOFhW/wNxDDa79olWr8HqjSrJQYStBGNpYunSp2iV4xpQpU4Jfig8wVI//H8UvmMjkHEEqfsBMfyX5qLCVIIxvs0wQnYHiB9j/zJ49W+vMI6irhQsX6kQUj8BWi7YRD+Fq0+oHvF9z585VO7sUoMJWgtABfP755xuXBlHSHxoUZrK6ZR6U9Afv8a+99trGJUWU9Aet/0cffSQzZ8ZfA1JJP1iChhVadDJK8lFhK0FQkSNw6cPpD3xlT5o0STVbHsEwPdpI1Wz5A9oRVmrQjxp/4P3CxEI1kclHhS1FURRFUZQUosKWoiiKoihKCvFuuZ4t5e2335Yrr7zS+ntJBajKUb3iAiLeSt9KesLEhlQ9E0ryoZlyy2Ip/kCd4bZD/RD6g7aNiXHZZZfJ5ZdfHoR+o9oLW9gMsC6i+npRFEVRFCWVdOrUSTp37hyEfqPaC1uKoiiKoijbEtXtKoqiKIqipBAVthRFURRFUVKIDiMmAL61fv31Vxk3bpw0btxY9t9/f6lTp05wVEk38Ik2fvx4mThxop3YwALm/fv3D44q6c7KlSvl66+/luXLl8uhhx4qbdq0CY4o6QhL9fz000/Wi3zLli1l9913t2slKukJ7ePPP/9s/WxhID9gwADZfvvtdXJDklBhaytZs2aNvPDCC/Lss89KkyZNbIPSokULeeWVV6RZs2bBWUq6gEPMu+++W4YNGybt27e3M0dZa+/II4+Uv/71r1K7du3gTCUdoZn65ptv5LzzzpN69erJk08+KbvssktwVEkn+JAZMWKE3HTTTfaDlPaQJWAOPvhg+fvf/x6cpaQTM2bMkHvuuUe+//572z6yYgOrNZx99tly4YUX6izgJKAi61ZAw//LL79YYeuqq66STz75xG6rV6+Wa6+9VteVSkOYfn7UUUfJZ599Zuvq008/lYceekjee+89KzAr6Q2ziu+//35p1aqV7cD1GzF94cPmxhtvlKOPPtouZfbuu+9ajQlT4pX0w33ITJgwwX7EfPDBB/aj9OSTT5aPP/7Y7lcSR4WtrYBlXv73v//JDjvsYL/W8LFFJ4A/r5EjR1qNiZJetGvXzg498dXm1OI777yzdO3a1Q5LKekLncGQIUNku+22k9NPPz3Yq6QraPcZNjzllFPsmrGLFi2ybWbbtm2DM5R0Aj+RjNTwftFOovWnT9tzzz3thw3HlMRRYWsr4OEcO3astRlp3rx5sFekb9++1iHcqFGjgj1KOkNdoS5XH2zpzfDhw+Xll1+2wxl0Akp6g2YE4eqdd96Re++9V+68805bfytWrAjOUNIJtP74hsImEk3kjz/+KN9++618+OGH0q9fv7g+o5QtR4WtrYAv7SVLlkjdunU38RrfqFEjK4jxJaekN9TTa6+9Zn/vscce9q+SftABYPuDrdaOO+4Y7FXSmYKCAmujNXnyZKs9xsj68ccflwceeMB6lFfSC/qwXXfdVQYNGiTPPfecPPzww9a27rvvvpP99tvPjtooiaPC1laCwBW7PI8bnlJ7kvQGm7qXXnpJ3njjDTn33HNtI6OkH7xH2GkxJHXaaacFe5V0hw8ZjOIvuugiO+x78cUXy0knnWTfN9VupR+8Z5MmTbKzR8866yxbb9gi77TTTtbGVc1ikoMKW1sBQhauHpitEYYvOlSyzE5U0hMaltdff91+ZdOwHH/88TrTJk1BMzJ06FArDDMkRb0xRF9UVCRfffWV7SCU9IP3CRcPHTp0sG1lTk6ONZZHq7V06dLgLCVdwGaVod8GDRrIMcccY221DjzwQGsgj7nMDz/8EJypJIIKW1sBGqwePXrYhgPfJI6ZM2fahqVXr17BHiWdQNBi9uE//vEPOeecc+SCCy6wQ8FKeoI7FQx0mTXKLF82hC4+cv75z39agUtJP9BE8q6xOVw7qfaR6QcG8Mz2RYGAn0gEZKdQACY5KImjwtZWgJHubrvtJtOmTZMvvvjCarT4OqADQAjr2bNncKaSLmCwi/Hngw8+KIcddpj1H4OGhE6ADl1JP7ClY3bvnDlzNm633367tY1888037fCUkn5cfvnltoMeM2aM7cj5/dhjj1ltF74IlfSCemGWNg6fcduxdu1aO3EIlw+0m2golcTJutUQ/FYqCVI/D+j8+fPlyy+/tMMdb7/9thW4br75Zjt9VkkvcNqHhmTWrFnWYJeGhVk3bMxK7NKlS3Cmks6MHj3azk5kWErfs/SkadOmdvgJe5+pU6faISrePzSTzG5T0gu8xaNAwNcW75ZTIuAfbZ999pHjjjtOnT4nARW2thLUrcyO4iHEmSnSP8NSuvxLesLXGlos3HUgLKPVchvDHt27dw/OVNIZBGOGftEsu2EOJb2gTRw4cKAdMqRtRJuFofwBBxxg3z0lvaBO+HDB/AUTGeqMVRqOOOII+cMf/qA2yElCl+tRFEVRFEVJIWqzpSiKoiiKkkJU2FIURVEURUkhKmwpiqIoiqKkEBW2FEVRFEVRUogKW4qiKIqiKClEhS1FURRFUZQUosKWoiiKoihKClFhS1EURVEUJYWosKUoiqIoipJC1IO8oiiKgbUzly1bJpdddpld12/hwoWy++67b1x6RpeaURRla1FhS1EUxbDvvvvahZMPOeQQoVksLS2VMWPGyPXXXy/HH3+85OTkBGcqiqJsGTqMqCiKEoD26tRTT5VnnnlGnnzySTnwwAPliSeekDVr1gRnKIqibDkqbCmKogQgbO2zzz72b61ataRNmzZ2OHHDhg3BGYqiKFuOCluKoighMjN/axbr1q0rWVlZdlhRURRla1FhS1EUZTOoYbyiKImiwpaiKIqiKEoKUWFLURRFURQlhaiwpSiKYhgwYIDstddeQShKu3btrK+t3NzcYI+iKMqWo362FEVRFEVRUohqthRFURRFUVKICluKoiiKoigpRIUtRVEURVGUFKLClqIoiqIoSgpRYUtRFEVRFCWFqLClKIqiKIqSQlTYUhRFURRFSSEqbCmKoiiKoqQQFbYURVEURVFShsj/A6IyewsDm6UUAAAAAElFTkSuQmCC;fontFamily=Times New Roman;" parent="1" vertex="1">
          <mxGeometry x="278.5" y="200.00000000000003" width="383" height="259.78" as="geometry" />
        </mxCell>
        <mxCell id="bVJKgHoNsAH_Ug4MozEx-3" value="End" style="ellipse;whiteSpace=wrap;html=1;fontFamily=Times New Roman;" parent="1" vertex="1">
          <mxGeometry x="200" y="610" width="75" height="40" as="geometry" />
        </mxCell>
        <mxCell id="bVJKgHoNsAH_Ug4MozEx-7" value="" style="endArrow=none;dashed=1;html=1;dashPattern=1 3;strokeWidth=2;rounded=0;entryX=0;entryY=0.5;entryDx=0;entryDy=0;fontFamily=Times New Roman;" parent="1" source="GYmJfna_k5HBjoJ6HTzK-7" edge="1">
          <mxGeometry width="50" height="50" relative="1" as="geometry">
            <mxPoint x="140" y="530" as="sourcePoint" />
            <mxPoint x="380" y="520" as="targetPoint" />
          </mxGeometry>
        </mxCell>
        <mxCell id="bVJKgHoNsAH_Ug4MozEx-13" style="edgeStyle=orthogonalEdgeStyle;rounded=0;orthogonalLoop=1;jettySize=auto;html=1;exitX=0.5;exitY=1;exitDx=0;exitDy=0;entryX=0.5;entryY=0;entryDx=0;entryDy=0;fontFamily=Times New Roman;" parent="1" edge="1">
          <mxGeometry relative="1" as="geometry">
            <mxPoint x="440" y="540" as="sourcePoint" />
            <mxPoint x="440" y="570" as="targetPoint" />
          </mxGeometry>
        </mxCell>
        <mxCell id="bVJKgHoNsAH_Ug4MozEx-14" style="edgeStyle=orthogonalEdgeStyle;rounded=0;orthogonalLoop=1;jettySize=auto;html=1;exitX=0.5;exitY=1;exitDx=0;exitDy=0;entryX=0.5;entryY=0;entryDx=0;entryDy=0;fontFamily=Times New Roman;" parent="1" target="bVJKgHoNsAH_Ug4MozEx-11" edge="1">
          <mxGeometry relative="1" as="geometry">
            <mxPoint x="440" y="630" as="sourcePoint" />
          </mxGeometry>
        </mxCell>
        <mxCell id="bVJKgHoNsAH_Ug4MozEx-10" value="O(2^n)" style="text;html=1;align=center;verticalAlign=middle;resizable=0;points=[];autosize=1;strokeColor=none;fillColor=none;fontFamily=Times New Roman;" parent="1" vertex="1">
          <mxGeometry x="530" y="585" width="60" height="30" as="geometry" />
        </mxCell>
        <mxCell id="bVJKgHoNsAH_Ug4MozEx-11" value="for each subset, compare each rule and test for a match" style="rounded=0;whiteSpace=wrap;html=1;fontFamily=Times New Roman;" parent="1" vertex="1">
          <mxGeometry x="380" y="650" width="120" height="60" as="geometry" />
        </mxCell>
        <mxCell id="bVJKgHoNsAH_Ug4MozEx-12" value="O(2^n * m)" style="text;html=1;align=center;verticalAlign=middle;resizable=0;points=[];autosize=1;strokeColor=none;fillColor=none;fontFamily=Times New Roman;" parent="1" vertex="1">
          <mxGeometry x="510" y="658" width="80" height="30" as="geometry" />
        </mxCell>
        <mxCell id="bVJKgHoNsAH_Ug4MozEx-15" value="&lt;font style=&quot;font-size: 20px;&quot;&gt;Backward Chaining&lt;/font&gt;" style="text;html=1;align=center;verticalAlign=middle;resizable=0;points=[];autosize=1;strokeColor=none;fillColor=none;fontFamily=Times New Roman;" parent="1" vertex="1">
          <mxGeometry x="10" width="180" height="40" as="geometry" />
        </mxCell>
        <mxCell id="bVJKgHoNsAH_Ug4MozEx-17" value="&lt;span style=&quot;white-space: pre;&quot;&gt;&#x9;&lt;/span&gt;&lt;span style=&quot;white-space: pre;&quot;&gt;&#x9;&lt;/span&gt;&lt;div&gt;vect size: n, where&lt;/div&gt;&lt;div&gt;n = intersection of:&lt;/div&gt;&lt;div&gt;Rule Clause subset and&lt;/div&gt;&lt;div&gt;&lt;span style=&quot;background-color: initial;&quot;&gt;User Clause Subset&lt;/span&gt;&lt;/div&gt;" style="text;html=1;align=left;verticalAlign=middle;resizable=0;points=[];autosize=1;strokeColor=none;fillColor=none;fontFamily=Times New Roman;" parent="1" vertex="1">
          <mxGeometry x="510" y="468" width="140" height="90" as="geometry" />
        </mxCell>
        <mxCell id="zKh0KMP6CpczOnqGha_U-1" value="create userClauseList" style="rounded=0;whiteSpace=wrap;html=1;fontFamily=Times New Roman;" parent="1" vertex="1">
          <mxGeometry x="25" y="327" width="120" height="60" as="geometry" />
        </mxCell>
        <mxCell id="O8vuOBbYs2hfskXVkeQJ-1" value="create userValidClauseVect" style="rounded=0;whiteSpace=wrap;html=1;fontFamily=Times New Roman;" parent="1" vertex="1">
          <mxGeometry x="375" y="488" width="135" height="60" as="geometry" />
        </mxCell>
        <mxCell id="O8vuOBbYs2hfskXVkeQJ-2" value="create validClauseListSubsets" style="rounded=0;whiteSpace=wrap;html=1;fontFamily=Times New Roman;" parent="1" vertex="1">
          <mxGeometry x="357.5" y="570" width="165" height="60" as="geometry" />
        </mxCell>
        <mxCell id="O8vuOBbYs2hfskXVkeQJ-4" value="" style="shape=image;verticalLabelPosition=bottom;labelBackgroundColor=default;verticalAlign=top;aspect=fixed;imageAspect=0;image=data:image/png,iVBORw0KGgoAAAANSUhEUgAAAe0AAAFwCAYAAACVTCNmAAAAAXNSR0IArs4c6QAAAARnQU1BAACxjwv8YQUAAAAJcEhZcwAADsMAAA7DAcdvqGQAAEJUSURBVHhe7d0HeBzV2Tbgd3uRVr1Zsix3jI3BptgUm2a6CekQ8oWSSv4AIZCQQhIgISQhgZCekAL5UkgjXyrNoZliMNgGV9ybXNX79p1/3rNnsSRkW2WlnTnnuXXtpZ3ReqVdz8yzpzsMEwEAAIDlOeV3AAAAsDiENgAAgE0gtAEAAGwCoQ0AAGATCG0AAACbQGgDAADYBEIbAADAJhDaAAAANoHQBgAAsAmENgAAgE0gtAEAAGwCoQ0AAGATCG0AAACbQGgDAADYBEIbAADAJhDaAAAANoHQBgAAsAmENgAAgE0gtAEAAGwCoQ0AAGATCG0AAACbQGgDAADYBEIbAADAJhDaAAAANuEwTPI+gHWlUkSRCFE0mr7F4+l9vW98KPffdrmI3G4ijyd94/uZ7cx3r1f+ErCCWDJG8WScEqkExVPp7+K+uS+znUwlyeFwkNPhfOvmML96b/PN4/KQz+Ujn9tHfrdf7AOwM4Q25B4HcHt7+tbRQdTdTRQOE/X0pL/zjR8zWpzmhTwYJMrLS9963+994w8AMGwctN3xbuqOmbde33viPX3upwzzA9co8Tg9FPAEKOAOUNATFPfzPHlU4CugQn8hFfoKRdADWBVCG8YGl3xbWw+Fcyag+TuHstWZpToKhYhKSoiKiw99LypKhz68hUO3LdJGLeEWag23UmukVdzvjHaSYX5ZHQd6JsB7h3lxoBgldcg5hDaMjrY2osZGooaG9PfmZrOolZQ/VAgHdkFBOsT5VlFBVFmZrnbXAFdZH+w+SA3dDSKY+dYR7RjV0nKuuBwuKg2WUnmwnCryKqg8r5yK/OaHNoAxhNCGkeO25v37DwV0UxNRLCZ/qCEulZeWElVVHbpxlbsCuPp6f+d+OtB1QIR1c0+zLUrPo8Xr8lJZsCwd4maYjwuNE23nAKMFoQ1Dx1XdBw4Q7dmTvnFIw5Fx1XomwGtrifLz5Q+srSvWRfXt9SKk+dYZ65Q/gcPhEB9fMF7cqvKrUKUOWYXQhsHh9uhMSHOpOpGQP4Bh4ar0urr0rbw8XTq3AL4cNPY00q62XbSrfZeo7obhczvdVB2qfivEUZ0OI4XQhsPj0vS2bUS7dplFri65E7IuEEiXvjnAx48f8/Zwbpfe07FHhDSXqsMJG3QMtKl8bz7VFdbRlJIpohQOMFQIbeiL26W3b0+HNQ+9grHFw8rGjSOaOpVo0qRRC3AO6h1tO2hry1bRRp00FOwkaHEc4JOLJ9OU4imiUxvAYCC0Id2zm0Oaw5qHYYE18OQvHNzTpxNVV4+4Cp1P9X2d+2hz82YR2DxJCVgDDy3LBDj3UAc4HIS2rrjH96ZN6RsPzwJr445rXPrmAOex4UPAY6Y5qLlUzR3LwNq43fuY0mPomLJj0BMd3gahrRuu/l6/Pl2qVnHctA6449oxxxBNm3bY6nOu/t7SsoU2NW0SHcvAfnhcOLd9zyyfKYaUATCEtg64p/fWrUQbNmB4lko4sDm8Z80iKiwUu9oj7bS+cb0Ia56nG9TAw8g4vKeWTBU90kFfCG2VcbU3B/XmzXpPdqI6h4PCMyfSxjKiFV07tZ7sRHU8mcv00ukiwDF8TE8IbRVxx7JVq4h27JA7QEWGg6i7zE+dBSmKmV8s6vXS7oCLdjrCpN5EotDbpKJJdOK4E9FxTTMIbZVwezWH9e7dcgeoKOV0UFdVgDoDMUqYXwNJuN20P+ilzc6w+Qic4iqbUDhBhDfavfWA0FYBT4LCYc2zlYGyuGTdWRmgjrwYJc2vwUi6XLQnLx3eKHmrjWdc4/DGpC1qQ2jb2d696bDmaUVBWXyCdlcEqD0UP2zJ+mi45L0jaN4cERH+oK5x+eNEeNcU1Mg9oBKEth1xm/XLLxPt2yd3gKrCJX5qLU5RXLZZjxS3eW8LOKneDG9QG895ftr409DmrRiEtp309BCtWJGeEAX/bUqLFPqozbzWRh1RuSe7wj4fbQ4QHaDReX6wBof5xZO0nFJ9CgU85n842B5C2w54EpQ1a4jeeIMojrG3Kovle6it3EVh59iUhLsCfnrTl6QWsywP6vI4PTR33FyaXTGbXE6X3At2hNC2Op4TfPlyrLKluJTLQW01Aer09Mg9Y6sxP0hrXWGKO3A5UBkvUjK/Zr6YaQ3sCaFtVTxz2UsvER08KHeAqnpK/dRSlKDkMDuZZUvC5aat+W7ahfZu5VXmVdIZE84QM62BvSC0rYanHH3tNaJ169BurbiEz0Wt1R7qGaOq8MHqCPhpjTdO3Q7MTa8ybu+eXTmbTq4+GVOj2ghC20rq64lefJGos1PuABXxCdc5LkjtwQilLDp6OuV0Un2ejzY5wxgipriQN0QL6xaKcd5gfQhtK4hGiZYtI9qyRe4AVcXyvdRcYX532GMu+IjPS+v8RM02+Xth+KaVTKPTa08nn9sn94AVIbRzbdcuohdeSA/nAmXx1KPt3NHM22O/SUXNknZDXpDWujElquqCniAtnLCQ6orq5B6wGoR2rvCqW9zRDKVr5cXyPNRU5cjaBCm5whOzrA4Y1OrA8DDVcambO6rxqmJgLQjtXOCFPZ56CsO4NNBZ6afW/KhZPlXjNDOcDtqR76ctzrDcA6ri4WHnTT4PC5FYDEJ7rK1ene4dnsLyDSpLuZ3UPN5HPS41w609GKBV3ijFsAyJ0pwOJ82rmUfHVx4v90CuIbTHSiRC9NxzWDZTA9ECLzWVp4a9uIdd8CIka/Od1GDzan84Ol7+8+yJZ5Pf7Zd7IFcQ2mOBl858+mmi7m65A1TVUR2ktoANO5sNl4NoT36Q1rvQkVJ1eZ48WjR5EZb+zDGE9mjit5bnC+dFPvA2Ky3pdVFTjYciFpsoZax0+/200henMCZkURpPyMKTsfA85pAbCO3RwmOvuXS9Z4/cAari6vDG8iTxl86SLhetCblQXa4BnoiFO6mhd/nYQ2iPho4OoieeIGprkztAVd1lAWoujCjTO3ykuHf55pCfdjrQu1x1Rf4iumjqRVTgK5B7YCwgtLNt/36iJUvSJW1QWnt1gNoCCKeB7A0FaR3auZXHHdPOn3w+jQuNk3tgtCG0s2nTpvTsZhjOpTSei7t5QoC63QjsI2nNC9AKTxiDwhTHw8LOrDuTppdOl3tgNCG0s4XXvOYx2KC0pMdJTbUeijhQkzIYPT4fveqPU9SB6FbdnKo5Ykw3jC6E9kjxUprPPEO0c6fcAaqKBz3UMM5Qfvx1tsU9HloZJGrH9KfKm1g0kc6ddC6W+hxFCO2RCIeJHn+cqKlJ7gBVRYp81Fgat+xSmlbHS32uD3loH2oolFcWLKOLp15MAU9A7oFsQmgPF0+U8uij6CGuge7yADUXhNE/fKQcRJtDAdqBecuVxz3LF09bTHnePLkHsgWhPRydnUT/+U/6Oyitq8IM7BBCJpu2FAZoO4aEKY+HgnFwh3whuQeyAaE9VFyy5hI2piRVHgJ79Gwzg3srglt5PPXppdMvpUJ/odwDI4XQHoqWlnRgc1s2KK2r0gzsfPw/j6btBQEs8amBgDtAi6cvppJAidwDI4HQHqzGRqLHHsOkKRrorApQSx7CZCzsMIN7M4JbeT6XTwQ3d1KDkUFoDwav0sXTksYwp7LqENhjb5cZ3BsR3Mrjecq5V3llfqXcA8PhlN/hcLiEzcO6ENjK6xgXRGDnQF1HmI5NBuUWqCqWjNFjWx6jxm7zmgrDhtA+Eu50xoEdx6QQquN1sFuDmCs7VyZ09tDMFIJbdfFUnB7f+ji1RTBUdrgQ2ofT1ZXudBbRc31knXCVeGsAgZ1rtR09NC2FCTlUF0lERIm7K2ZeY2HIENoD4aDmTmcY1qW8cIkfVeIWMrkjTLWGX26BqjiwObg5wGFoENr9cVU4V4ljpjPlRQu81FiM0QBWc2xnlMrIK7dAVVxF/viWxymeRPPjUCC0e0smiZ58Mt35DJSWCLipsTxJBiYntRxHyqA5nUkKGVh0QnWNPY20ZNsSSqbMay8MCkI7g0e+Pf000b59cgeoipfXbKh2UNL8AmtymR+gT+5xkM/AJUp1ezv30jM7njEvwfgAPRg4IzJeeQXLa2rAcDqosdZDcfMLrM0bj9P8iIdchkPuAVXtaNtBy/cul1twJAhttnkz0dq1cgNUxZ/jm+p8FMXykLYRiEZpXsxHDhTClLfm4Bra3Gxei+GIENoNDUQvvCA3QGWtE4LU40RvVbspCEdoLiZf0cILu16ghm7zmgyHpXdo9/QQLVmS7oAGSuOx2J0ejMW2q/KuHpqOMdzKSxpJ0TGtJ45z9XD0DW0Oag5sDm5QWizkpdY8lLDtbmJnBEPBNMCBjR7lh6dvaHOVOFeNg9JSbic1VqQwtEsBDsOg47tTZmyjVU91XEX+wm40Ww5Ez6OfO51x5zNQXnOtlxLmF6jBE0/QSVGUtnXAndLWHkQH4f70C21eZpOHd4HyeBEQdDxTD3dMOzaJ9m0dvLLnFTrQZV6z4S16hTYvr/nMM+mJVEBp0UIftWEREGVN6ApTpeGTW6AqbtbiiVd4WU9I0yu0uR2bV+8CpfGMZ41lPEUpKMv8zz2uK0l+tG8rjxcX4aFgkKbPEc9t2Nu2yQ1QFQd103gvJdGOrTx3MkEnR9C+rYNtrdsw8YqkR2h3dBC99JLcAJV11AQpgnZsbeRFIjQbE69o4aXdL1FH1LyWa0790E6l0u3YvOQmKI2X2mzzox1bN9WdPVRuoMStungqLtq3U4Z5TdeY+qG9ciXGY2uAFwJpLkcrtq6O6zGwsIgGePz2yn3mNV1jaof2/v1Eb7whN0BlbTUBrNylMV4RbDaGgWnhjQNv0P5O89quKXVDO5EgWroUw7s0wNXiHV5Ui+uusquHKjDNqfJ4GNjSXUu1neZU3dBetSrdAQ2Uhmpx6G1WN6rJdcAd0lbtN6/xGlIztFtbidaskRugsvZqVIvDIVxNPjPpl1ugstUHV1Nr2LzWa0bN0OZJVLjXOCgtluehDh+qxaGv6u4wFRseuQWq4l7kOi4qol5ov/lmen5xUF5LpROznsHbmQfF7Ii6LX9wCM9LvrFpo9zSg1pHdjhMtHy53ACVdVYFKOqIyi2AvgLRKB2TQm9yHSzfs5zCcfParwm1QnvZsvSiIKA0nlu8LQ+BDUc2oSuKuck1EE1G6eU9L8st9alzRO/Zg7nFNdE+zk8p8wvgSJypFM1MoFOaDra2bKU9HWYGaECN0OZOZ1zKBuXFgx7q8qDzGQxOeXcPFZBbboHKltUv02KKUzVCmzuftbXJDVBZW6ULnc9g8MyDZVYUoa2DtkibFp3S7B/a3IbN84uD8iKFPurBCl4wRAXhCFUaPrkFKluxbwXFkmr3a7J/aPPc4hFcyHXQVooyNgzPMbhEaCGSiIi5yVVm79Du7iZat05ugMq6y3iIF0YGwPDwELCJBoaA6WBdwzrqiavb78Xeoc3zi/PCIKA0nkq6rRBTlcLITO6JK9KJB44kkUoovXynfY/h9naiTZvkBqissypICfMLYCQ88QRNx/KdWtjUvEksKqIi+4b2ihWYX1wDKbeT2oNokITsqO2OkhflbeXx0K/X9r4mt9Riz6OXV/HCRCpa6KzERCqQPTzhynSsAqaFba3blFwFzJ6hvXq1vAMq47WyO/2YrhSyq6onijW3NcHLd6rGfqHd1UW0davcAJV1lfspaX4BZJMrmaQpBkrbOuDpTbtiZmYoxH6hvXYt2rI1wCOyO/LRYxxGx/hwghwY9q88bttee9DMDIXYK7Sj0fSUpaC8njI/eozDqPHE41RHKG3rgKc2jSbUaWazV2ivX49x2ZroKEBtCoyuugiOMR3EU3Fa32hmhyLsE9oc1pj9TAuRIh/FMPsZjDJ/NEbjDK/cApXxLGk86YoK7BPaPJEK5hjXQkcxevbC2JgUxbGmA56TfHPzZrllb/YIbcNId0AD5cXyPRTGSl4wRkKRKJWQR26BytYcXGNGif17H9ojtOvrzeKXmlPSQV8dZVj7GMbW1DiOOR3wtKb1HWaW2Jw9Qnuj+gubQ3rK0h4XStkwtop6IpjaVBPck9zurH+khsNEu3fLDVBZd5mPDDFCG2DsOAyDJqV8cgtUtrt9N4XjZqbYmPVDmzugYTIVLXQFMfsZ5EZVFMeeDniyFbt3SLNHaIPyYnkeDPOCnOHhX0XokKYFu1eRWzu09+9Pr5sNyusuRmcgyK2JCYS2Dtqj7bS/08wWm7J2aKMDmhZ4waVuH0rZkFtl4SjmI9eEnUvb1g3tmHkR37FDboDKIsVYzQtyj1f/Go/5yLWwo20HxZL2LChYN7R5+U3MM66FrkJ5ByDHalDhowWe0pSX7bQj64b29u3yDqgs6XFiBjSwjMJIxCxrW7vVELJje6s9M8aaRyfPMc6d0EB53WV+jMwG6zAPxokpVJHr4EDXATEnud1YM7R37UrPNw7K6wmgLRuspTyKZjkd8JjtXW1m1tiMNUMbHdC0wFXjUYc6i9ODGoLRGPkMVJHrgDuk2Y31jsx4nGjvXrkBKuN1swGsqIZwbOpgb8deiifNzLER64U2zzOeRJWpDsJ58g6AxZTb6zoOw5Q0kmI+cjuxXmijalwLPKFK2IWqcbCmgkjUom2HkG12qyK31nHJJWys6KWFaIGXUuYXgBU5UymqNFBFroP69npKpuxTu2ut0Oa2bEyoooVwAeYaB2urTKCsrYN4Kk57O+3Tj8paR+WePfIOqC7sRaMhWFtxDAUIXXCHNLuwVmjv2yfvgMriATfFzS8AK/PG41RAqBHSwb5O+2SPdUKbZ0FraZEboLJwIZZABHuoTnnlPVBZc7jZNrOjWSe0MW2pNsIBzHYH9lAaQ2dJXdhljW3rhDaqxrURc2IpJbCHIC8RDFqwSxU5QhvGVCzPg6FeYBs89KvIQLu2DvZ3oaQ9eOEwUWur3ACVxfJc8h6APZQb6IOhg5Zwiy3ata0R2mjP1kY04JD3AOyhCLMqa8MOVeTWCG1UjWsj6sLYV7CXvDhSWxcI7cFqbJR3QGUpt5PiDozPBnvxxWLktVD3Hxg9TT1N8p515f5INAyMz9ZENIS2QbCnMrRra4HbtQ3OJAvLfWi3tWEpTk3EguiEBvZUkkRJWweJVILaImYmWVjuj8TmZnkHVBf1YqgX2FNhEhMC6YJnR7Oy3Id2k/XbECA7ophUBWwqEENfDF009yC0jwwlbS0k/G5MqgK25UomKR+Lh2jB6p3RENowJuIBtGeDvRUYOIZ1gOrxI+nuTq/uBcpL+HL/+RBgJEIGjmEd8Kxo3TEzmywqt0chStnaSHgwExrYWzCFY1gXVi5t5za0ebgXaCHuRns22FsgiWNYF1Ye9pXb0O7slHdAdQkHpi8Fe/MlMJ+ELrpiXfKe9SC0YdTxCFeENtidNxEnB4Zra6Ezat1sym1od1n30wxkTyLgFsENYGvmQRxyYNiXDjpjCO2BoaStBQ5tABWEMOxLC6geHwgP9YpjliEdxDHcCxSB0NZDLBmjaCIqt6wld1dTVI1rI+FB5TioIYgO5NqwahV57kIbVePaSDoR2qAGH4Z9acOqndEQ2jDqUghtUITb4mstQ/agpN0fT2EKWkhinAwowpXCsayLnniPvGctuQvtqDUb+SH7UoRJKUANvNoX6AEd0fqLYW1lXWBJTlCFK4VjWRfRJEK7L4S2FlJOBxmYWgUU4TAMchMWDtEBD/uyIlSPw6hKeTGuFdTiwxKdWkBo94eSthZSblzgQC1+wgdRHaBNuz+UtLWQdKMqEdTiQ/W4FlDS7g9TmGoBJe2+Pvud39DHb/+p3CK64pb76Gs//bPcGtgZ/3Mb/fpvT8mtwXn5jU008bzrqL3LmsNW7Mybw8smjB2Edm9cNY5JCrSQUmStkDt+9Eda9JE75FZfew+20OQLPkn/XbZa7hm8B+78JH322nfKrcFbt2U3ferrD9DJ7/scTb/4ejr7mq/SF+/7HW3fc1A+wloef36VeI8ONLXKPX3x33/Xz/4it4ZvOB9whsqLS5cWuAOtFYM7d6ENWjAc9q9KTCZT9P6LzqBtuw/QyvXb5N5DHlmyjEqLQnTO/OPknsErKsij/KBfbg3O06+sofd8+h6KxRP0/S99lJ5+8Gt0/xc/QqH8AN330D/lo6zlvNNPoOKCfPrbkpflnkOWr9lMO/c20BUXL5B7rM1loHpcFwjtDIx11McoXd8GKlFdfN1ddP///psMwxDfT7/yi6IUOu+Kz9OdP/6TfBRRNBanux94hOZf8QU69tIb6Z03fEtUJ2f89cllNPudnxEl5/M+cqd4jsJQkI6bNoH+8sRL8lFp/LseefJleu/5p5kv1UGfv/e3tOBDt9Exl9xA5157Oz34f0/LRw6sf/V4U2sHffQrPxb/np/nH08vlz9JC0didOt3/5fOnncc/equ62nBScdS7bgymnvsJPryde+jb978IfnIvlrbu+jGu38lXvOMxTfQhR/7Gv3zmVflT9OO9J6ykbyvHreL3n3efPFe9feXJ5bRnBmTaPrEalGd/4X7fksnvvezdNxlN9GVn/sebdhWLx+Z9tTLq+myT31T/A1z33MLfeKOn4n9/F7uPdhsltj/KpoG+DYaFPgcCoOUMqyXVbkJbVSNayMX/9OPv7CKHjTD524zwJ79zV30i6/9PzpmUo38KVd1/4lWbdhOP/rKx+iJX9xOi888ia750g9pR6+q5Ug0Rj//85N0z2evoiW/voPKigroCrO0/ejSldQTPtSJ8uXVm6n+QBNdfvEZ5gluUFV5Ef30q5+gp359J336qsX03Qf/Qf95boV89NF9zgzkfY2t9Md7b6Gf3X4d/e5fS6m5rUP+lGjpivXUYgbwdVdcIPf0VZgflPf6isbjNNv80PHg3TfQkl/eQVcuXki3fPshemPjDvmIoxvp+3qF+R7tMEvUXLLO6A5HRNU5/4xd//VfmK+3k37zzRvp3z+9TXxQ+p9b76e2jvS0x8+8spauu+PndPb84+ixn3+F/vDdm+mEYyaKn3FTw7jyYrrl2svo1b98R9xGA2bl1Qd/ULUahDaMrhyUSvY1tFB5SSEtOPFYqqksEaU4DinG7c9ckuZgnTd7GtVVl9MnLr+ATjluqtifEU8k6a5PX0knzZpCU2qrKOD30mWL5on9jz6/Uj6K6BGzlMj/dvL4SlGavOWay+h4M0S49PuuRfPp/ReeLoJ+MLg9+rlX19G3b76KTpw5mWZPrzM/NFxtfoA41GmTq5HZVPNvGoqqsmLxOmdNraUJ5mu+9t3n0lmnzBr038ZG+r5Oq6sWNQJcss549LmVou3wHeecQq+t3UqrzQ8RPzGfg9/DSeZ7yrUHBeYHkcfke/7jhx8zH3uyeJ+n1o2jmVNq6foPXix+xk0NTqeT8gI+qjD/Tr4BjIQVJ4ZCaINyLjFLeFxSPvOqL4vOWU+8+Dol5JzRm3bspWQqRedcezvNvPTTb9249LdrX6N4DPN63HTs5PFyK41LsRctmEt/lVXknd1hevzFVaKUnfHbfz5Ll/6/u0X1Lj/vHx99QYTdYGzdtZ/cLqcZ1hPkHjOcJ1SJ0MoY7id/bpf/4e8fFdXiJ7z7ZvG3PW+W2veZYTtY2XhfL7/oDFGy7uqJiG1ubuDn5Xb9N7fXU3ckSnPfk37vMjeuydi1P/0cXFV++twZ4n6u5OaiCbmAknYGQlsbo9Vnx+lwvO0wSpilYFZdUULP/ObroqTs93noqz98mC6/+V5RSubqWJdZGvv3z26jxx74ylu3px78Gt1x/RXi3zOf10OOARovuRr3VbNEyCVervbm5+JqYPavZ1+jux/4m6hG/+23bxLP+z6zpB1LJMTPs4FLn2xr/QHxfbAe+MsSeuj/nqZPfuBCUfXOf9uZJ8/q87cd6T1l2XhfuUTNHl26QlSbr1i/7a2q8e5wVJSOe/97vj3z0NfpussvFI/xe73ie27h+qULlLQz0JNDG6PV/ldSlE+NLe1yK13q5RJZht/npfNOO4HuvOED9Kf7PivaWrk0OGvaBFEi5HbTiTUVfW6DqU49bc4xVFtVJqp8+faOs0+mYMAnfrZy3VY6adZkuuqdZ4u2WH7O3b1KmUczxSxVJ8wS8drNu+Ueom1mOHf0Gmt95kkzqaQwnx748xK5p6/DjcteuX4rnX/6HHr3eaeKKuUJ48r6tOGzo72nbKTvK5eoLznrRFFFzu8fNytwdTrj96yxpYNcLufbnoNfM5sxuYaWvb5R3B+I1+2i1Kgvn4nrly6cDuvVqyC0YXSNUq3K6XNm0P899YpZ6t1CG7fvFZOWcEmPcRj8+fEXRZhwaP7jqeWiZFhjlhQ5JN61aB7dcs9D9MQLq6h+f5PojPWThx8XnZyOxmEeu5dfdDr9/t9LRWBd3muY0kTzuddu2kVLX1sv2qd5+NWaTTvlT4+O2865nfm27/+eXn9zhxneu0Q1NP/tGfwB4du3XEXPLl9LH/vqT+jFlW+KYOXf861f/I2+/P0/yEf2xcH34soNYsgaV8Pfdv8fRE/13o70nrJsva9XXLRA/B1/+M/z9H7zvczgtnJuy+fe4M+v2CBeFz+OO/Nl3sebrrpU1Gh873//JV4H/50/+9MT4mdsfFUpLV+zRYwH5w57owFjXyCXENowqngY1Gj41JUX0fzjp9NHv/xj+siXf0QXnDFHdLBi3Ab8x0dfpPfd9B266BN30Yur3qRf33U9FcvS2ndvvZbec/6p9I0HHqFzP3y7CIk1m3eK6t/B4CpvLoXyECXuWJXxwcUL6cKFc+mGb/yS3nXDt6m1o5s+dNnZ8qeD891br6HK0iK64pZ76ZN3/lx09CotKpA/TePX+rcffJ7cLhfd9K1f06IP30Gf/uavqcP8mz734YEnarnxfxaL0vDVX/wBfeCz91F5SQGdbz5Pb0d6T1m23tdTZk+lybWV1NUdEUPlMvgD0UPfvJHmmyVvHtbGQ+ZuNN9LHsZVVpx+D7imQ/TOX7aGLvnkN+iDt36PVm889MHo5msuoz3m48+86iuiXwHASFixpO0wctHS3mF+wv/TofGdoK6O6iC1BjCVJqijviBIG5w4pnXwgeM+QAW+vh+acy03HyPMEgJoYuw/EgKMKlSP68PttN48zLkJbUv0AIWx4Bz1TkEAYyuJT6La8Lqsl1W5CW2Px/zN1msrgOxzJnCBA7XEMCWaFrg9GyXt3lDa1oIziQscqCWGkrYWrFjKZghtGFXOBFoAQS0RtGprAaHdH0JbC644LnCglqgDx7QOfK70pElWk7vQ9lnzDYHsciK0QTEROjS1K6jL50Zo94XQ1oIjZYzaBCsAYy3lcKByXBOoHu8P1ePacJlfACpIYY4JbSC0+0NJWxvOHB5mANmUxFBVbfjdfnnPWnJ3BOan5ysG9TlTqB4HNSQQ2trI8+TJe9aSuyMwFJJ3QHVOAxc6UEPCiQ+gugj5rJlRKGnDqHMncaEDNURwKGsj5EVo94WStjbcccwgBWroRj80baCk3R/PP+63ZkM/ZJcngkEyoIZuTKyiBe6EZsV5x1luGxtRRa4Fdzgh7wHYWzvhWNaBVavGWW5DG1XkWnBHk5hgBWzPcDrMkjZmQ9OBVavGGUIbxoSbPPIegD3F3DiGdZHvtW4tMEIbxoQnldtDDWCkIm70QtMFqscPp6hI3gHVuRMIbbC3MA5hbRQHiuU968ntYVhaKu+A6jwxDPsCe8NwL32UBqybTbkNbR7yhR7kWnBj2BfYXBeGe2mB27Otuiwny32FD0rbWvBg2BfYXBvF5T1QmZVL2QyhDWPCFUtiiU6wrYTbTRGspK2F0iBC+8gQ2trwJbGGOthTtxfDvXRRFiyT96wp96FdZu03CLLHF5V3AGym3YXJgXSB6vGj4bHaXpTAdODrQfUi2FOzC30ydOB1eS09GxrLfWgzVJFrwdsZw2SmYDs8WLHJiKU3QGlWL2Uza4R2RYW8AypzpAzyGqhVAXuJ+ryUwqdNLVTkWT+LrBHa1dXyDqjOm7DmcncAh9PpwTGri+qQ9bPIGqFdVWX+Jdb4U2B0+cKYGQ3spcWJvhg6cDqcVJVvZpHFWSMpPR70IteErxMTVIC9NDnRCU0HPNTL47L+0D7rFG9RRa4FdySBSVbANpIuF3URQlsHdqgaZwhtGHOYZAXsosuHY1UXCO2hQru2NgI98g6AxTVhIjQt2KU9m1knJd1uDP3SRKANY17BHvY4MI2fDniol9tpj1EC1iraoopcC7x4iA/jtcHiwl4vFgnRhF2qxpm1Qnv8eHkHVBeIoDMaWFuLD+OzdTG+wD7ZY63Qrqw0r+YBuQEqC3Qk5T0Aa9rnxPBEHQTcAarMM7PHJqwV2g4HUV2d3ACVebti5CKUZMCaeP3sFgdCWwcTiyaa0WOfeWqtFdps0iR5B1QXiKNrLlhTuw/Hpi4mFdsrc6wX2jU1WKpTE8EuTGkK1nTQjWNTB7wUp506oTHrhTaP1Z4wQW6AynxtUXJgsU6wGMPpoH2EoV46qCusE2O07cSafy2qyLXgTBnkT/nkFoA1dPt8lHSgpK0Du1WNM2uGdm1terIVUF5eF0raYC37vTgmdcCTqdhpqFeGNUObAxtjtrUQaI6YB6G9qqdAXSmnk3Y7InILVFZbUGubWdB6s+7VcupUeQdUxlXkwQSqyMEaWgM+ShCqxnUwpWSKvGcv1g3tiROJ/H65ASrLb8VEK2ANuz04FnXgd/vF+Gw7sm5ocy/yadPkBqjM1xEjj/kFkEsxj4caCIvZ6GBayTTb9RrPsPZfPWOGvAOqywsjtCG3Gvw4BnUxo8y+2WLt0C4uxnKdmshvxrhYyK0dLhyDOuB5xosDZrbYlPXrB1Da1oIrmqRACn0YIDe6An7qIbRn68DOpWxm/dDmXuQeVFvpIK8T42MhN/ZibLYWPE6PbXuNZ1g/tHnM9hR7v8kwOMEWjNmGscdjs+sJY7N1wIFtx7HZvdnjCokqci04Ugblx1BFDmOrKejHtKWasHvVOLNHaHNnNHRI00KogRcRARgj5sG2yY0OaDqoyKsQN7uzT13kCSfIO6AydzRJwQRK2zA2WgIBdEDTxAmVamSIfUKbZ0grLJQboLKCJlxEYWxs8SbkPVBZoa/QtjOg9Wef0HY4UNrWhLc7ToEk5iOH0dUZ8FMbxeUWqOyEqhPMCFGj4c0+oc14WtNgUG6Aygpa5R2AUbLdh85nOgh6gmLaUlXYK7RdLqLjjpMboDJ/e5R8BkrbMDrCPh8dIHRA08HsitnkcprZoQh7hTabOZPI65UboLKCdvQjh9GxE58HteB1eenY8mPllhrsF9oc2Meq9Z8AAws2R7D6F2Qdr+a124lStg6OLTtWBLdK7BfabPbsdFU5KK+gy96zF4H11Ptx7dCBy+Gi2ZVmVijGnqHNndFmzZIboLK8hjC5zS+AbIh73LTdhSlLdTCrYpbohKYae4Y2mzMHbdsa4Nkli9pRRQ7ZsT3gppS8D+riKvE5VWZGKMi+oe33Ex1/vNwAleU1hdGTHEaMe4zvdKKUrYPjK48nv1vNmRXtG9qM27Y5vEF5xc3yDsAwbcKlQgsBd0AM81KVvUOb19k+6SS5ASrztUcpmMRVF4anPRiggw70GNfBSdUnkcelbpOavUOb8fCvoiK5ASorOpjACmAwdOZBs8GL6Up1UOQvUmL5zSOxf2g7zZcwf77cAJV5wgnKj2MaWxiaBrOU3UFYGEQH82vmk9Nh/1g7EjVeXV0dUXW13ACVFe6PmAet2iclZE/K/FC/Aetla6E6VE11RWYWKE6dq9/pp6dL3aA0VzxFhWG0bcPg7M3zUdSBQV6q49L1GbVnyC21qZNyJSUYAqaJ0AFMuAJHl3C7aROGeGmBh3gVB4rlltrUKpqeeCJRQYHcAFU5UgaVtCK04cg25bkpybPzgNIKfAV00jh9RhGpFdrmJ2tasEBugMoCLRHKSwbkFkBfbcEA7XGglK2DBRMWKLX05tGo1wg8fjzR1KlyA1RWvC9mHsDoxwB9ceez1V50PtPB1JKpNL7AvOZrRM0r3mmnEfkw7aXqXLEkFXfh/xn62hHyUQQzjCvP5/LRaePNa71m1AztQIBo3jy5ASrLPxgmv4He5JDW7ffTVkdYboHK5o+fTwGPfk1k6tYt8kxpVVVyA1RWui+BanIgw+mkN/yYREUHVflVys98djhqX+nOPjs9PzkozR1JUFE3qsl1tyPfR12Y+Ux5HqeHzp5oXts1pXZo8/CvM/QYcK87HrvtT6GaXFdcLb7FiWpxHZwx4QwxzEtX6tcpTp9ONHmy3ACVle5HNbmOuLc4qsX1MKV4Ck0vNa/pGtPjCnfmmUT5+XIDVMXV5CXtqCbXzZYQqsV1kO/Np4V1C+WWvvQIba+X6NxziRxY2FF1eU1hCsUx6YouGvODtBO9xZXnML/OnXQueV3mtVxz+tQlck/yuXPlBqisuD5MXgMnt+oiPi+94e6RW6CyuePmih7joFNoM56bvKJCboCqeLrp8v0p8+BG+7aquB17ZSCFKVQ0UJFXQSeOM6/dIOh1VeOlO7manKvLQWnucILKWvH/rKqNIS/asTXA1eFcLc5Lb0Kafu8EDwNbtAjt2xrgRUUKomjfVs3B/CDVYzEQ5XE79qJJi7Qe3jUQPT++1NZimlNNFO0Nk89Aj3JV9Ph8tNqFdmwdzKuZR7WF5rUa+tC3zuGEE7AamAZE+/beBLnML7C3pMtFKwMJMlBJpjxeveuEKvMaDW+jd0MBj98uK5MboCpXNEmlLW7Ctd7GzP+8Dflu6qGk3AGqKguW0Vl1Z8kt6E/v0Ha7iS68ML0qGCgt0Bqlki78P9vV9lCA9jmwRrbqgp4gXTjlQnI5UTN2OHqHNsvLIzr/fPOdwFuhOl7GszAalFtgF/vyA5hXXAPcQ/z8yedTnte8JsNhIakYT7yyYIHcAJUV7emhvARK3HbREgzQWjcCWwcLJiygyvxKuQWHg9DOmDEjPfkKKK90N1YEswNeuWulF4GtA548Rdf1sYcKod3byScTzZwpN0BVokf57ih5zS+wpqjXS8t9Ucx4poFZ5bPo5Grz2guDgtDuj9ffnjJFboCqnEmDKvYkyW1+gbUk3G56NZikOH+6AqXx0C5eHxsGD6HdH8+Uds45ROPHyx2gKh4KVn7AYZ4EOA2sgucUX5XnwNAuDdQW1NLZE8+WWzBYuFoNhHuSX3ABUSU6RajO2x2n8maPmDIRcsswPzCvC3mo1RGXe0BVlXmVdP6U8zGn+DDgHTscHsN90UVEJSVyB6jK3xal8lYfgjuHOLDXF/hoP8ZiK68kUEIXTb2I3E40TQ0HQvtIfD6iSy4hCoXkDlAVLy5S3oLgzgXDaZawC7y0F4uAKC/kDdEl0y4hnxvrAQyXwzDJ+3A4XV1Ejz5K1N4ud4CqIkU+aiiNkWF+wegTgR3yYrYzDRT6CunS6Zdi8pQRQmgPVk8P0WOPEbW0yB2gKg7uxtI4pTDgaFQZTietKfDQAUJgq46rxBdPW0wBDyY2GimE9lBEIungbmqSO0BVkUIzuMsQ3KOFA3t1yEMHUcJWHi8AwoGNKvHsQGgPVSxG9PjjRAcPyh2gqmiBlxrKEwjuLONhXasL3NRA5rkESuNe4hdPu5i8LkxklC0I7eFIJIieeIJo3z65A1SF4M4uDuw3Qm5qdCCwVVcdqkYv8VGA0B6uZJJoyRKi+nq5A1QVC5nBXZEk/oLhS7pcZmC7qAklbOVNKJwgVuzCEpvZh9AeiZRZ+lq6lGjLFrkDVJXwu6mhxklxBM6w8FziK4Ip6qKE3AOqmlYyjc6aeBYmThklCO1sWLWKaMUKuQGqSrmd1FTrpbAT44mHosvvp1d9UcwlrgFe+INX7ILRg9DOlm3biJ57Ll1tDsrik6V1QoA6PVgycjCa8gK0yh0mA3PWKI3brXke8cnFk+UeGC0I7WxqaCB68kmiMC7oqusYF6TWYI/cgoHsCgVoowvnguqCniBdMOUCqsirkHtgNCG0s41nT+Oe5ZiERXnhEj81FcfQs7wfHoP9ZshL9ZiWVHmZecTzvflyD4w2hPZoiMeJnn6aaPduuQNUFcv3UGOlQQl0sBJ4LezX8x3UQlipS3XcQ3zRpEXkcXnkHhgLCO3Rwm/ra68RvfGG3AGqSvpc1Fjjpqjms3uFfT5aEUhgLWwNzKmaQ6dUn0IOBzorjDWE9mjjcdzPPpueAhWUxR2t2sYHqcOrZzv3gfwArXWH0VCgOL/bT+dMPIdqC2vlHhhrCO2x0N1N9MwzRPv3yx2gqnCxj5pLEtpMxMITpmzId2OVLg2Myx9HiyYvEh3PIHcQ2mOF3+aVK4lefz19H5SV9LqoqcZDEcXHc/P461W+OIUdqA5XGa8xP3fcXDpp3EmoDrcAhPZY27s3XerGsDDldVQHqS3Qo97K3OZ1uz4/QBswnEt5AXeAzp10LtUU1Mg9kGsI7VzgwObg5gAHpfGCI03lKWV6l3Pv8LX5TqzQpYGaUI0IbKyBbS0I7Vzht339eqJXX02vGgbK4ulPW8b7qNvmJdP2YIBWeaNmXKO7mcp4drN5NfPouIrj5B6wEoR2rnV0pKc/PXBA7gBVdZcFqLUwZrtOatzZbGu+l3Y6UB2uuqr8KjEdaYGvQO4Bq0FoWwFK3drgUndrjY+63PYIQJ47fK0HpWvVoXRtHwhtK+nsJHrxRazRrYFIoY9aylIUt+jMYTGPhzYEnXQQQ7mUV1tQSwvrFmIqUptAaFvR1q1Ey5ZhQhbF8YQs3MO83R8mwyJ9zA2Hg/aJnuE9KFsrjidKOb32dJpaMlXuATtAaFtV1Czh8Brdb75JlMLlU2XxgJtaxrkpkuMFNrr9flrjT1AH5lFXmtPhpJnlM8W4a5/bJ/eCXSC0ra6tjeiVV7D4iAa6KgLUFhr7jmrc0WxHnpe2OdHRTHW8yMep40+lIn+R3AN2g9C2iz17iF5+mai1Ve4AFaVcDuqo8lOnP0qjveQnL6F5IM9Pb5phHXfgMqAyXkKTw3p8wXi5B+wKoW0n/F/F1eVcbY72bqUlPU5qH+enLk/2Z1TjduvGoBnWnihF0HKtNG635tW4ZpTNwBSkikBo21Eslp7DfN068+qOeZ9VlvC7qa3SQ91ZGiLWmhegDZ44daHdWmkuh0sM3+I5w70ur9wLKkBo21lPD9GaNUQbNmB8t+JieR5qr3BRzzAXIekI+GmjN0mtDmsOMYPs4PHW3Mns+MrjsRqXohDaKuCqcg5vnqAljouyyngu87YyB0UGOX66x++jTX4Dc4UrjkvTmbDmKnFQF0JbJTxMjKvM+cb3QVk8OUtHiYPChyl5d5ol6+0+gw4QjgOV+Vw+UQ3ONwzf0gNCW0Vc2uZSN5e+0WFNafGghzrK3dTtjlDKQdQa9NMWT4LaLDrTGmQHl6a5VD2rfBZ5XB65F3SA0FYZd1Lbti3d5t3QIHeCcgIBSh4/k94sI3q9aQOFExhvraqKvApRDT6leAq5nC65F3SC0NZFU1M6vHmKVHRaU0N5OdGsWURTphC50hfwZCpJ21q30bqGddTUY/6fg+1x5zKeapTDuixofjIDrSG0dcPDxTZvTgc4z7YG9uLzpUN6+nSz2FUhdw6sobuBNjdvpm0t2yiaRNu23fCsZRzU00unY9gWvAWhrbN9+4g2biTatQu9zq3M6SSqrU0HdV1densIUkaKdrXtEgFe31EvtsGaPE4P1RXViclQqkPVci/AIQhtSLd989zm3P7N31F9bg1lZemgnjqVyJ+dYTyRRIS2tmwVAY7qc2vg6m+eE5zbqfk72qrhSBDa0BeXuLnkzQHO63pjhbGxVVKSLk1zUBcXy52jozXcKgJ8V/suagm3yL0wFnjGstrCWppcPJnqCuvQAxwGDaENh8ft3zt3pm9clc7bkF3cgay6mmjChHRY5+fLH4ytrliXqELnAN/fuZ+SBqbHzTZul+Yq74lFE8UN7dQwHAhtGBwucfOwMV5tjG+NjekFTGDoAoFDIV1TQ+SxVikrnozT3s69IsR3t+/GELJhcphf5XnlYmUtvvFwLV7LGmAkENowPDzj2t69h0K8q0v+AN4mGCSqqjp0Ky01zzx7rLjEl4fmcDMd6Drw1q0n3iN/Cv3le/PfCumaUA1mKYOsQ2hDdnBoc0mcS+CZm6490ouK+oZ0QYH8gRo6oh19QrwtoufQQe7pzSXp8qB5M79zSZpDG2A0IbRhdPBhxePAe4d4c7NaS4m63emA5g5jfONOZDx2Oks9ve2Ce6TzmHDuzMad21ojrSLIEyl1RiFwx7HSYGmfgC70FWKNahhzCG0YO3yocYm8vT196+g4dL+z07o91b1eolDoUDhnApr34aI9IL6sdMY6+wQ5f+d9saQ1OzRye3PIG6JCf6EIZP5e4CsQ97kEjYAGK0BogzVwYGcCndcJD4cPfecbL3zC7eh8G+k4cr74cimZO4Dxdy4Z5+Wlb9z+zD24+XtmHz8GsoZL4N2xbuqOd4v2ce65zt8z+7jkzo/hDnH83TC/RoLHQfNqWNy+zAttBNwBCngCYr1pvs/fOaA5mNFRDKwOoQ32w1Xs3F7OQX+4Gx/W/J0Dt3dA83c5TzfYA8+nHk+lAzwT5HzjgOXSL38/3I3bnTFZCagEoQ0AAGATqAsCAACwCYQ2AACATSC0AQAAbAKhDQAAYBMIbQAAAJtAaAMAANgEQhsAAMAmENoAAAA2gdAGAACwCYQ2AACATSC0AQAAbAKhDQAAYBMIbQAAAJtAaFsILzN45513yq2x9Zvf/Eb8/p07d8o9AJBrfD3g8xIgA6E9DJmAy9zcbjfV1NTQtddeS3v37pWPsoZkMkkPPfQQnX322VRSUkI+n48mTpxIH/7wh2nFihXyUQD2lQm2pqYmuaev4447Thz/VhKJROj++++n+fPnU2FhIfn9fpo+fTrdcMMNtHnzZvkogLdDaI/A17/+dfrd735HP//5z+niiy+m3//+93TWWWeJE9IKwuEwXXrppfSRj3yEeNn02267jX72s5/R1VdfTS+//DLNmzeP9uzZIx8NAGOBP1wsWLCAbrnlFqqoqBDXkZ/85Cf0rne9i/71r3+JDxkAh4PQHgEO6g996EP0sY99jH71q1/R5z73Odq2bZs48azg1ltvpSeeeEJ8ol+6dKn4+zjA+SKxfv16+s53viMfCQDZwh/aU6mU3Ho7rpF7/fXX6ZFHHqF///vfdNNNN9FHP/pRcT5u2bKFPv3pT8tHArwdQjuLFi5cKL5zcGdwtdxAVXN84nI19dFwdTsHbWVlpajanjVrFj344IPyp4fHJegHHniAzj//fPrMZz4j9x7icrlEiI8fP17uebt//vOftHjxYqqurha/e8qUKXTXXXeJKvfe+HXw6+lvoNf+ox/9SLyGYDBIxcXFdPLJJ9PDDz8sf5o22Nc8mOcCGEi2jsPnnntOVM3/6U9/oq985SuimYyfs6OjQz6ir+XLl9Ojjz4qQvq9732v3HsI/557771Xbg2Mm7vOPfdcUUrnx8+cOVPUoPXHf9dAfWT6n6/xeJy+9rWv0bRp00Q1fWlpqagJ+O9//ysfkbZx40Z63/veJ5rZ+HH8nvUvoAz2uWD4ENpZlOnExReBbDh48CCdeuqp9NRTT4m2rh/84Ac0depUccJ///vfl48a2OOPP06JRIKuuuoquWfouO0+Pz9fVOPx7z7ppJPo9ttvpy9+8YvyEUPzy1/+UpQi+CLDfz+f3HPmzBEXsozBvubBPBfAQLJ5HGbwh1kOY/4g/M1vfpO8Xq/8SV+ZkBvJeckBXVdXJ5q77rvvPqqtraVPfepToop9ODjY+T0455xz6Mc//jF9+ctfpgkTJtCqVavkI0jUzPH78eabb4rzn39vXl6eqNL/+9//Lh81uOeCETJgyMxPuga/deYJbTQ2Nhr19fXGI488YpSXlxvmJ1+xnXHWWWeJW3/XXHONYZ54ciuNn/OOO+6QW4ZhXiCMcePGGU1NTXJP2gc+8AGjsLDQ6OnpkXve7uabbxbP9/rrr8s9R5Z5TTt27JB7jAGf/7rrrjPMkoQRiUTkHkO8Dn49/fV/7e985zsNs7QitwY22Nc8mOcCPfA5w8cun4sD4eNktI7DZ599VvzuyZMnH/F8zHj3u98tHt/a2ir3HFnmtfU20O+58MILxd/QG/+73teTjP7n6wknnGAsXrxYbg1s0aJFxuzZs/uc96lUyjj99NMNs1Qt9wzuuWBkUNIegfPOO4/MoBafdLnaiD958ifpI1U5D5b5f0N/+9vf6B3veIe4z51XMjfzBKX29vYjfnrNVM+FQiHxfTgCgYC8R9TZ2Sl+NzcBmBcNUVU2VEVFRaLa/rXXXpN7+hrKaz7acwEcTjaPwwwzBPucL4eT7fOS/xb+u8wPJbR9+3axPVT8fnBJmtvTB9LS0kLPPPMMXX755W9dB/jW3Nws3g/+d5lRM0d7Lhg5hPYIcHUUt9Vwh5JLLrlEHMjcxpQNZqmB2tra6Be/+IX4YND7xsO1WENDg/g+kIKCAvGdT7Lh4pPPLBmIISn8fPy7ueMdG87F4Qtf+IKobude69zmdf3119NLL70kfzq013y05wLojdt3M7J5HGZMmjRJ3juybJyX/LdygYELCRyS/HdxVTkbznnJHVP59fKQM7M0LTqwrlmzRv6UaOvWreLDy1e/+tW3vR9mSV48JvN+HO25YOQQ2iPAJz2fPNyhJDNU44Mf/CB1dXXJR/S9WPTWvzNXf5nepxyS/MFgoNsZZ5whHjOQGTNmiO9r164V34eKTzz+9L569WpxInIvV/6d99xzj/h5796xg32Nxx57LG3atEl02uHOKVya4e+ZE38or/lozwX64A5PjIc4DoRrhjKPYdk8DjMGU8pmIz0vuZProkWLRAHhe9/7nmhH57/n5ptvFj/vfV4eTv/z8swzzxTPy53s+BrGI2FOPPFE8Z1lnpPb6/u/D5kbt/ezoz0XZIH5CQqGKNP++9prr8k9aZn2rW9961tyT7oNi9t5+lu4cOER27QTiYQRCoWMK6+8UmwP1e7duw2Xy2VccMEFcs+R9W/T/vvf/y62ly5dKrYzzNKH2M+vNWPu3LminbC/2traAdvzM6LRqGj/4r/TvOCO6DX3fy7Qx8MPPyyOSTM85J5Duru7DbfbLfpiHM5IjsPMOf/Xv/5V7jmyZcuWicd/4hOfkHuOjK8H/PiM+++/X2zv2rVL7kkzS9pif+8+KcXFxcZNN90kt9L4tfLrHKgPSkZnZ6c4p2tqasT2wYMHxXN/6UtfEttD0f+5YORQ0s4iHt7EpW/uXZqZYIWHSXH7L1e5ZXDp9WhVueaJJUrwXApYt26d3HtI7+cbCLezf/zjH6clS5aI4S398adn7gF6uMlV+Pcz8xgR31ksFqOf/vSncusQfo2vvPKK+HnGf/7zH6qvr5dbadwG1hv3sOUevPw7eKjIUF7z0Z4L9MElT/7/517V/UuaXMXNoyh4ToWMbB6HQ3XaaafRRRddJEqe//jHP+TeQ/gc4hLt4Qx0XnKVOA8D64/Py+eff15upfH70b+k3f/94KYDLjmbAS+2eWgZX9t4COn+/fvFvt6OdF72fy4YOYf5n3/ofx8GhYdCcdsWd2ThsYq9cfv2+9//fnEB+eQnPymGSHA1kVnaFsNFuO2HZ1DjsZ/cKaX3XN9czcxVdJmxlTzshKc55JOCA5gvLNwphDvB8FAUvn8kXC3IQzK4+opPOp4djYejmaVwMksG4sME3+expZnXZH5SF+M4+eTj9j5ug+PhMfy38exvfFHkDx1mCeOtMdhPPvmkuBDxMA/urMLVYzw7HLe5cac8HsvKeMhYVVWVqFrk18/vDQ8LueCCC94aCjPY1zyY5wJ93H333WKcNB8Pl112mRgrbZZq6Y9//KM4JngIpNOZLqNk8zjkY5uPez6fuDPqYPBz8u/i84g7u/GHDj5XuPMWV9lzMGZCLjOEKnOZ5mr9448/no455hi67rrrRFMcD2HjcOTny5y/jEOWr0Hvec97xHwN/HM+V7k9ffHixeKcZ/we8LnM7wuPwebpjTnceajbD3/4Q/GYDRs2iCYEfg/5/Zg8ebJ4j3hmRf7gz8/NBvNcMEIc2jA0h6seZ+anWMP8hCtuXM3GzAATwzHMT/TGnDlzDPPEGdSQL8ZVU9dff72oavZ4PIZ5sRHDL7iaejD4bzA/1YvqeB6qws/Bv9cM6D7DwQYa8vXSSy8Zp556qhEIBIzq6mrj85//vPjb+XG9q8eZWWoXVWA85M28GBrmyfq2IV/mRcQ488wzjdLSUvE4fo9uvfVWwywpyEekDeY1D/a5QB98nvHxagagOCZmzJhhmIHXZ5gSy+ZxONTq8QwetnXvvfcap5xyimEGrrg28NCpG2+80di6dat81MBDvswPFoYZ3Ibf7zfMgDbuuece48EHH3zb+cvXoi984QtGWVmZGKbJw8L4ufsP+frGN75hzJs3zygqKhLnOr9v5ocgwyz1y0ekmR/Gjauvvlq8D/x+8PluFgTEcNeMwT4XDB9K2gAAADaBNm0AAACbQGgDAADYBEIbAADAJhDaAAAANoHQBgAAsAmENgAAgE0gtAEAAGwCoQ0AAGATCG0AAABbIPr/iz+5pgKzgHIAAAAASUVORK5CYII=;fontFamily=Times New Roman;" parent="1" vertex="1">
          <mxGeometry x="630" y="469.54" width="214.97" height="160.46" as="geometry" />
        </mxCell>
      </root>
    </mxGraphModel>
  </diagram>
</mxfile>
